<?xml version="1.0" standalone="no"?>
<!DOCTYPE svg PUBLIC "-//W3C//DTD SVG 20010904//EN"
 "http://www.w3.org/TR/2001/REC-SVG-20010904/DTD/svg10.dtd">
<svg version="1.0" xmlns="http://www.w3.org/2000/svg"
 width="506.000000pt" height="509.000000pt" viewBox="0 0 506.000000 509.000000"
 preserveAspectRatio="xMidYMid meet">
<g transform="translate(0.000000,509.000000) scale(0.100000,-0.100000)"
fill="#000000" stroke="none">
<path d="M2530 4846 c0 -2 7 -7 16 -10 8 -3 12 -2 9 4 -6 10 -25 14 -25 6z"/>
<path d="M2501 4745 c-30 -30 -52 -58 -48 -61 4 -4 14 1 23 12 8 10 12 13 8 5
-4 -9 -2 -12 6 -9 7 2 14 12 16 22 3 22 12 31 21 22 4 -4 1 -11 -7 -16 -8 -6
-10 -10 -4 -10 17 0 33 22 27 37 -5 13 -2 13 14 5 11 -6 25 -18 32 -26 7 -8
19 -12 27 -9 16 6 19 -13 3 -22 -6 -4 -21 3 -34 15 -25 24 -43 12 -26 -17 6
-11 11 -13 11 -5 0 9 8 8 33 -5 17 -9 35 -16 38 -15 4 0 14 -7 24 -18 9 -10
23 -16 31 -13 17 6 18 -8 2 -27 -11 -12 -10 -12 3 -2 19 14 33 4 18 -14 -14
-17 -3 -35 17 -27 12 5 13 7 3 14 -8 4 -10 11 -6 16 11 10 28 -18 22 -35 -3
-8 0 -12 7 -10 17 6 47 -22 41 -38 -3 -8 -10 -14 -15 -14 -6 0 -4 7 3 17 13
15 12 15 -16 1 -16 -8 -37 -13 -45 -11 -13 4 -13 3 -1 -5 8 -6 21 -8 30 -5 12
3 11 1 -2 -7 -14 -9 -21 -9 -32 0 -20 16 -8 39 18 34 21 -4 21 -4 2 5 -12 5
-25 5 -32 -1 -9 -7 -29 7 -72 51 -62 64 -100 78 -120 44 -6 -10 -11 -14 -11
-10 0 10 -30 -18 -30 -29 0 -10 -49 -54 -61 -54 -6 0 -7 -5 -3 -12 4 -7 3 -8
-4 -4 -7 4 -12 2 -12 -5 0 -6 -13 -24 -29 -40 -16 -15 -27 -30 -24 -32 10 -10
-8 -46 -20 -41 -8 3 -14 -7 -15 -27 -1 -17 -7 -39 -12 -49 -5 -10 -13 -51 -16
-91 -4 -41 -13 -80 -21 -87 -7 -8 -12 -31 -11 -55 l1 -42 4 43 c7 74 22 45 21
-40 0 -53 -3 -76 -9 -63 -5 14 -8 15 -9 5 -1 -8 -6 -4 -10 10 -8 25 -8 25 -9
2 -1 -22 -4 -23 -38 -18 -62 9 -126 10 -162 1 -28 -6 -37 -4 -48 11 -16 22
-17 38 -2 28 8 -4 9 0 4 15 -5 18 -2 21 27 23 18 1 42 1 53 0 64 -7 92 -6 88
2 -3 4 4 5 15 2 17 -6 19 -3 15 15 -4 15 -3 20 5 15 7 -4 12 -2 12 3 0 6 -4
11 -10 11 -5 0 -10 4 -10 10 0 5 7 7 15 4 13 -5 14 -2 6 19 -6 14 -7 47 -4 74
3 26 5 66 4 88 -1 40 -1 40 14 15 17 -29 19 -22 5 16 -8 21 -7 32 6 52 9 14
20 37 24 51 9 35 41 34 58 -2 8 -16 16 -26 19 -24 3 3 -8 27 -23 54 -18 31
-22 43 -11 34 9 -7 18 -10 18 -5 1 5 2 14 4 19 1 6 3 16 3 23 2 9 9 11 24 6
20 -6 21 -5 10 9 -9 10 -10 17 -2 22 5 3 10 1 10 -4 0 -6 4 -11 8 -11 5 0 8
10 8 23 -1 18 4 22 29 20 20 -2 25 1 16 6 -10 6 -10 10 -1 16 6 4 9 14 6 22
-5 11 -1 13 17 8 21 -7 21 -7 4 11 -18 18 -21 17 -97 -66 -130 -140 -196 -301
-188 -455 3 -55 1 -60 -17 -56 -11 1 -62 0 -112 -4 l-93 -7 6 -26 c4 -15 14
-43 22 -63 l15 -36 49 9 c27 5 95 5 154 1 58 -5 107 -6 109 -3 1 3 -2 52 -8
110 -8 90 -7 118 8 185 10 44 18 90 19 102 0 11 4 19 7 17 11 -6 41 47 35 62
-3 7 -1 13 4 11 5 -1 50 41 100 93 l92 94 84 -87 c47 -48 89 -85 95 -81 6 3
33 14 61 24 l51 18 -143 146 c-79 80 -146 146 -149 146 -3 0 -31 -25 -60 -55z
m89 5 c13 -11 21 -22 18 -25 -2 -3 -15 6 -28 20 -28 30 -22 33 10 5z m60 -58
c0 -13 -12 -22 -22 -16 -10 6 -1 24 13 24 5 0 9 -4 9 -8z m40 -48 c0 -3 -7 -1
-15 6 -8 7 -15 17 -15 22 0 5 7 3 15 -6 8 -8 15 -18 15 -22z m-493 -406 c-3
-8 -6 -5 -6 6 -1 11 2 17 5 13 3 -3 4 -12 1 -19z"/>
<path d="M2420 4760 c8 -5 20 -10 25 -10 6 0 3 5 -5 10 -8 5 -19 10 -25 10 -5
0 -3 -5 5 -10z"/>
<path d="M2865 4760 c3 -5 8 -10 11 -10 2 0 4 5 4 10 0 6 -5 10 -11 10 -5 0
-7 -4 -4 -10z"/>
<path d="M2435 4720 c-3 -6 1 -7 9 -4 18 7 21 14 7 14 -6 0 -13 -4 -16 -10z"/>
<path d="M2515 4690 c-3 -6 1 -7 9 -4 18 7 21 14 7 14 -6 0 -13 -4 -16 -10z"/>
<path d="M2340 4680 c8 -5 22 -9 30 -9 10 0 8 3 -5 9 -27 12 -43 12 -25 0z"/>
<path d="M2477 4664 c4 -11 -1 -22 -12 -30 -10 -8 -14 -14 -9 -14 16 0 34 22
34 42 0 10 -4 18 -10 18 -5 0 -7 -7 -3 -16z"/>
<path d="M2506 4655 c-3 -8 -1 -15 4 -15 6 0 10 7 10 15 0 8 -2 15 -4 15 -2 0
-6 -7 -10 -15z"/>
<path d="M2327 4653 c-4 -3 -7 -11 -7 -17 0 -6 5 -4 10 4 8 12 11 13 19 1 5
-8 11 -9 15 -3 3 5 -1 13 -10 16 -19 7 -19 7 -27 -1z"/>
<path d="M2630 4639 c-13 -9 -12 -10 3 -5 19 6 23 -4 7 -20 -5 -5 -5 -15 -1
-23 6 -9 11 -10 15 -2 4 6 2 11 -5 11 -8 0 -8 4 1 15 17 20 1 38 -20 24z"/>
<path d="M1760 4600 c0 -5 7 -7 15 -4 8 4 15 8 15 10 0 2 -7 4 -15 4 -8 0 -15
-4 -15 -10z"/>
<path d="M1883 4603 c9 -2 23 -2 30 0 6 3 -1 5 -18 5 -16 0 -22 -2 -12 -5z"/>
<path d="M2247 4603 c-4 -3 -7 -11 -7 -17 0 -6 4 -5 9 3 8 12 12 12 25 2 9 -8
16 -9 16 -3 0 5 -7 13 -16 16 -19 7 -19 7 -27 -1z"/>
<path d="M2396 4587 c3 -10 9 -15 12 -12 3 3 0 11 -7 18 -10 9 -11 8 -5 -6z"/>
<path d="M2866 4583 c-6 -14 -5 -15 5 -6 7 7 10 15 7 18 -3 3 -9 -2 -12 -12z"/>
<path d="M2565 4574 c2 -4 0 -14 -5 -24 -6 -12 -5 -17 4 -17 13 0 15 32 3 42
-4 3 -5 2 -2 -1z"/>
<path d="M2266 4543 c-6 -14 -5 -15 5 -6 7 7 10 15 7 18 -3 3 -9 -2 -12 -12z"/>
<path d="M2386 4535 c-9 -26 -7 -32 5 -12 6 10 9 21 6 23 -2 3 -7 -2 -11 -11z"/>
<path d="M2690 4540 c0 -5 5 -10 10 -10 6 0 10 5 10 10 0 6 -4 10 -10 10 -5 0
-10 -4 -10 -10z"/>
<path d="M2860 4519 c0 -5 6 -9 13 -9 8 0 7 -4 -3 -10 -17 -11 -4 -12 22 -2
15 6 14 9 -7 19 -14 6 -25 7 -25 2z"/>
<path d="M1814 4483 c-31 -4 -31 -5 -38 -71 -16 -170 -1 -359 37 -462 27 -74
106 -205 135 -223 6 -4 12 -12 12 -17 0 -14 -88 -142 -108 -157 -14 -12 -14
-13 1 -13 10 0 39 -11 66 -24 l48 -25 18 32 c23 40 81 112 119 149 l28 27 -53
56 c-135 138 -189 291 -189 527 l0 90 135 -4 c128 -3 136 -2 141 17 14 47 37
85 53 86 9 1 -4 5 -29 10 -45 8 -318 9 -376 2z m49 -22 c77 11 129 11 122 -1
-3 -5 -1 -10 4 -10 6 0 11 5 11 11 0 12 139 7 159 -5 6 -4 5 -18 -2 -36 -11
-29 -12 -30 -82 -28 -38 1 -96 1 -128 0 -56 -2 -58 -3 -64 -33 -4 -22 -8 -27
-14 -17 -6 9 -9 4 -9 -14 0 -16 3 -28 8 -28 4 0 8 -35 9 -78 1 -49 -2 -70 -7
-57 -7 16 -9 11 -9 -20 -1 -26 2 -35 8 -26 6 9 11 -4 16 -40 4 -29 16 -73 26
-96 10 -24 18 -49 16 -56 -1 -7 4 -11 11 -9 8 1 12 -3 10 -10 -4 -12 52 -97
94 -142 9 -10 14 -24 11 -29 -4 -6 0 -8 9 -5 19 8 41 -28 30 -48 -5 -9 -12
-15 -16 -15 -4 1 -23 -20 -43 -46 -20 -26 -42 -52 -50 -56 -7 -4 -13 -14 -13
-22 0 -23 -19 -27 -49 -9 -17 10 -27 23 -24 31 3 7 9 10 14 7 5 -3 7 -10 4
-15 -3 -5 1 -6 9 -3 14 5 14 8 1 21 -16 16 -19 29 -7 35 11 5 62 82 62 94 0 6
14 17 31 25 28 13 29 16 15 28 -14 12 -16 11 -10 -5 4 -10 4 -16 -1 -12 -4 4
-14 0 -23 -8 -14 -14 -18 -12 -41 16 -14 18 -33 45 -42 61 -9 16 -19 25 -23
22 -4 -4 -4 1 0 11 6 15 4 17 -6 11 -8 -5 -11 -4 -7 2 6 10 -27 86 -34 78 -2
-2 -9 7 -15 20 -9 19 -9 22 2 18 18 -7 18 -5 -6 42 -15 29 -20 59 -20 117 0
45 -4 78 -10 78 -12 0 -14 77 -2 82 5 2 11 28 14 58 l6 55 -14 -40 c-10 -29
-13 -32 -9 -10 3 17 8 50 12 75 3 25 8 40 10 34 2 -7 21 -8 56 -3z m-76 -318
c-3 -10 -5 -2 -5 17 0 19 2 27 5 18 2 -10 2 -26 0 -35z"/>
<path d="M2033 4453 c9 -2 23 -2 30 0 6 3 -1 5 -18 5 -16 0 -22 -2 -12 -5z"/>
<path d="M1822 4390 c0 -14 2 -19 5 -12 2 6 2 18 0 25 -3 6 -5 1 -5 -13z"/>
<path d="M1842 4310 c0 -8 4 -26 8 -40 6 -20 8 -21 8 -5 0 11 -3 29 -8 40 -5
12 -8 14 -8 5z"/>
<path d="M1841 4145 c0 -11 -4 -31 -7 -45 -5 -19 -4 -22 5 -14 7 6 11 26 8 45
-2 19 -5 25 -6 14z"/>
<path d="M1810 4094 c0 -10 5 -26 10 -34 8 -11 9 -7 4 15 -8 37 -14 45 -14 19z"/>
<path d="M1865 4035 c4 -22 11 -47 17 -55 6 -11 7 -6 2 15 -4 17 -8 38 -8 47
-1 10 -6 21 -10 25 -5 5 -5 -10 -1 -32z"/>
<path d="M1830 4031 c0 -5 5 -13 10 -16 6 -3 10 -2 10 4 0 5 -4 13 -10 16 -5
3 -10 2 -10 -4z"/>
<path d="M1892 3866 c15 -29 15 -29 22 -11 4 11 2 14 -6 9 -7 -5 -9 -2 -6 8 4
8 0 15 -7 15 -11 0 -11 -5 -3 -21z"/>
<path d="M1970 3810 c0 -5 5 -10 10 -10 6 0 10 5 10 10 0 6 -4 10 -10 10 -5 0
-10 -4 -10 -10z"/>
<path d="M1980 3679 c0 -5 5 -7 10 -4 6 3 10 8 10 11 0 2 -4 4 -10 4 -5 0 -10
-5 -10 -11z"/>
<path d="M2009 3628 c-12 -23 -12 -23 10 -4 23 21 26 26 11 26 -5 0 -15 -10
-21 -22z"/>
<path d="M1940 3540 c0 -5 5 -10 11 -10 5 0 7 5 4 10 -3 6 -8 10 -11 10 -2 0
-4 -4 -4 -10z"/>
<path d="M2455 4478 c8 -20 -10 -25 -18 -5 -4 9 -6 9 -6 0 -1 -18 19 -27 32
-14 8 8 8 14 -2 24 -10 10 -11 9 -6 -5z"/>
<path d="M2644 4479 c-3 -6 -2 -15 3 -20 5 -5 9 -1 9 11 0 23 -2 24 -12 9z"/>
<path d="M2960 4484 c-132 -25 -273 -86 -363 -156 l-37 -30 -44 36 c-25 20
-49 36 -54 36 -5 0 -15 7 -22 15 -16 19 -40 19 -40 0 0 -9 6 -12 18 -9 13 5
14 4 3 -4 -8 -6 -20 -8 -28 -5 -7 3 -13 -1 -13 -8 0 -8 -7 -26 -14 -41 -13
-24 -13 -28 -1 -28 13 0 101 -69 169 -131 28 -26 31 -27 45 -10 44 49 154 128
221 159 96 44 187 62 323 62 l109 0 -4 -135 c-2 -92 0 -135 8 -135 6 0 31 -11
57 -23 l46 -24 7 44 c8 57 1 370 -9 380 -9 8 -336 14 -377 7z m181 -15 c47 0
100 -4 117 -9 23 -6 32 -5 33 3 0 7 3 7 6 -2 5 -11 7 -11 15 0 6 9 7 -5 4 -41
-4 -38 -3 -47 3 -30 12 33 13 21 16 -132 2 -133 -1 -144 -42 -132 -10 2 -8 -1
5 -7 19 -10 31 -29 18 -29 -11 0 -69 29 -58 30 6 0 11 10 11 23 -1 16 -2 18
-6 5 -2 -10 -9 -18 -14 -18 -6 0 -7 9 -3 23 11 32 4 210 -9 226 -9 10 -42 12
-152 9 -77 -2 -147 -8 -155 -13 -8 -6 -26 -11 -40 -11 -74 -3 -76 -4 -60 -15
12 -8 10 -9 -9 -4 -16 5 -21 4 -17 -4 4 -7 -1 -11 -13 -11 -11 0 -23 -4 -26
-10 -3 -5 -18 -10 -33 -10 -19 0 -23 -3 -13 -9 9 -6 10 -11 2 -15 -6 -4 -16
-4 -23 0 -6 4 -8 3 -4 -4 10 -17 -11 -24 -36 -12 -21 10 -21 10 -5 -3 21 -17
22 -31 2 -23 -9 3 -15 0 -15 -10 0 -8 -8 -18 -17 -21 -9 -4 -27 -18 -39 -32
l-23 -26 -23 23 c-15 15 -18 21 -7 17 10 -4 20 -2 23 3 3 5 -5 10 -18 10 -26
0 -120 65 -109 76 3 3 -3 6 -15 6 -15 0 -22 6 -22 19 0 26 20 37 32 20 7 -10
7 -7 3 9 -5 16 -2 22 9 22 9 0 16 -4 16 -10 0 -5 8 -10 18 -10 11 0 27 -9 37
-20 10 -11 13 -20 7 -20 -6 0 -14 5 -17 10 -3 6 -11 10 -18 10 -6 0 -2 -7 10
-15 12 -8 28 -12 36 -9 8 3 18 1 22 -5 4 -7 13 -8 23 -3 9 5 32 8 51 6 18 -1
30 1 25 5 -14 10 -13 41 1 41 8 0 20 6 27 13 19 17 61 40 55 30 -3 -4 9 -9 25
-9 l31 -1 -24 13 c-28 16 -21 18 15 4 16 -6 27 -6 31 1 4 5 3 9 -2 8 -4 -1
-14 -1 -21 0 -19 2 -4 21 17 21 10 0 33 8 52 17 18 9 52 16 74 15 31 -2 37 0
25 8 -16 12 -8 11 48 -5 16 -5 22 -2 22 10 0 12 5 15 18 10 9 -3 56 -6 103 -6z
m-511 -153 c0 -2 -7 -7 -16 -10 -8 -3 -12 -2 -9 4 6 10 25 14 25 6z"/>
<path d="M2840 4411 c0 -5 9 -7 20 -4 11 3 20 7 20 9 0 2 -9 4 -20 4 -11 0
-20 -4 -20 -9z"/>
<path d="M2695 4339 c-4 -6 -5 -12 -2 -15 2 -3 7 2 10 11 7 17 1 20 -8 4z"/>
<path d="M3271 4324 c0 -11 3 -14 6 -6 3 7 2 16 -1 19 -3 4 -6 -2 -5 -13z"/>
<path d="M2660 4319 c0 -5 5 -7 10 -4 6 3 10 8 10 11 0 2 -4 4 -10 4 -5 0 -10
-5 -10 -11z"/>
<path d="M2442 4288 c5 -23 38 -39 38 -18 0 5 -9 14 -20 20 -16 8 -20 8 -18
-2z"/>
<path d="M3314 4286 c-3 -8 -4 -29 -2 -48 3 -29 4 -27 8 15 5 48 3 58 -6 33z"/>
<path d="M3273 4235 c0 -27 2 -38 4 -22 2 15 2 37 0 50 -2 12 -4 0 -4 -28z"/>
<path d="M2560 4190 c-8 -5 -11 -12 -8 -16 4 -3 14 1 23 10 18 17 9 21 -15 6z"/>
<path d="M2670 4471 c0 -10 19 -25 25 -20 1 2 -3 10 -11 17 -8 7 -14 8 -14 3z"/>
<path d="M2240 4381 c0 -9 30 -24 36 -18 2 1 -6 8 -16 15 -11 7 -20 8 -20 3z"/>
<path d="M2252 4320 c0 -14 2 -19 5 -12 2 6 2 18 0 25 -3 6 -5 1 -5 -13z"/>
<path d="M2098 4313 c7 -3 16 -2 19 1 4 3 -2 6 -13 5 -11 0 -14 -3 -6 -6z"/>
<path d="M2272 4290 c0 -19 2 -27 5 -17 2 9 2 25 0 35 -3 9 -5 1 -5 -18z"/>
<path d="M3018 4313 c7 -3 16 -2 19 1 4 3 -2 6 -13 5 -11 0 -14 -3 -6 -6z"/>
<path d="M2870 4291 l-45 -19 3 -103 c1 -57 -1 -128 -6 -156 -5 -29 -8 -54 -6
-56 2 -1 47 1 101 5 130 11 235 -3 316 -42 71 -34 142 -94 131 -112 -5 -7 -3
-8 5 -3 9 5 33 -13 70 -49 l58 -57 -80 -77 c-43 -42 -83 -76 -88 -74 -12 3
-13 8 15 -71 l24 -69 149 145 150 145 -131 129 c-72 71 -147 141 -166 155 -93
67 -201 101 -327 102 l-93 1 0 66 c0 90 -10 159 -24 158 -6 0 -31 -8 -56 -18z
m50 -26 c0 -8 -4 -17 -10 -20 -5 -3 -10 -14 -9 -23 0 -11 3 -12 6 -4 11 29 18
7 19 -62 1 -55 6 -79 18 -91 9 -9 16 -13 16 -8 0 4 18 8 40 8 22 0 40 -2 40
-5 0 -3 32 -5 71 -5 50 -1 74 -5 83 -15 6 -8 26 -16 45 -18 18 -1 43 -10 55
-18 12 -9 14 -14 5 -11 -9 3 -16 0 -16 -7 0 -16 29 -17 39 -2 5 7 8 7 8 -3 0
-7 6 -11 14 -8 8 3 24 -5 37 -19 12 -13 18 -24 12 -24 -6 0 -18 10 -27 23 -16
22 -16 22 -4 -5 8 -20 18 -28 35 -28 16 0 22 -4 17 -12 -5 -8 -1 -9 12 -5 18
7 18 6 -1 -9 l-20 -16 20 6 c23 6 54 -9 41 -21 -5 -4 -11 -2 -14 6 -3 10 -6
11 -12 1 -5 -7 -6 -19 -3 -26 4 -11 8 -11 20 1 21 22 32 19 39 -11 4 -14 9
-21 13 -16 4 6 11 4 19 -4 10 -10 10 -14 1 -14 -16 0 -3 -13 15 -16 19 -3 56
-36 56 -51 0 -7 5 -13 12 -13 9 0 9 -3 0 -12 -7 -7 -12 -19 -12 -28 1 -12 2
-12 11 3 5 9 15 17 22 17 7 0 -3 -14 -21 -31 -18 -17 -36 -28 -39 -25 -4 3
-15 -2 -26 -11 -19 -17 -20 -17 -14 0 4 10 3 16 -2 13 -4 -3 -8 -19 -9 -37 -1
-39 -4 -42 -45 -44 -27 -1 -32 -5 -33 -28 -1 -14 3 -24 8 -21 4 3 6 9 3 14 -3
5 4 14 15 20 31 17 24 -3 -14 -38 -32 -29 -74 -37 -93 -18 -11 11 -14 48 -3
41 5 -3 10 -3 10 2 0 4 10 19 21 33 11 14 18 20 15 13 -4 -7 1 -11 12 -10 10
0 19 9 20 21 1 17 -1 18 -8 6 -5 -8 -10 -10 -10 -4 0 6 15 22 34 35 19 13 32
27 30 31 -7 11 10 10 24 -2 9 -7 9 -7 2 2 -14 17 -12 31 3 22 6 -5 4 3 -6 16
-10 14 -20 33 -24 43 -3 9 -10 17 -16 17 -5 0 -45 36 -89 80 -43 44 -83 80
-88 80 -6 0 -10 4 -10 10 0 5 -7 6 -17 3 -12 -5 -14 -3 -8 7 6 9 4 11 -4 6 -7
-5 -18 0 -26 10 -10 13 -14 15 -15 5 0 -9 -4 -10 -12 -4 -7 6 -20 11 -28 11
-8 0 -35 6 -60 12 -26 7 -82 10 -135 7 -68 -4 -93 -2 -102 9 -15 16 -17 48 -3
39 6 -4 10 6 9 22 0 25 -1 26 -9 8 -8 -18 -9 -18 -10 5 l-2 25 -9 -25 c-6 -17
-6 -13 -1 15 4 22 6 66 5 98 -2 40 1 57 9 55 7 -3 14 -10 16 -18 3 -7 0 -10
-6 -6 -6 4 -8 -2 -4 -16 l5 -22 9 24 c9 25 -5 50 -29 50 -8 0 -12 4 -8 10 3 5
13 6 22 3 9 -4 14 -2 11 3 -4 5 5 10 18 10 14 1 24 -4 24 -11z m-61 -285 c1
-13 0 -13 -9 0 -5 8 -9 24 -9 35 l0 20 9 -20 c5 -11 9 -27 9 -35z m696 -370
c-10 -11 -20 -18 -23 -15 -3 3 3 14 13 25 10 11 20 18 23 15 3 -3 -3 -14 -13
-25z m-145 -136 c0 0 -8 -8 -18 -17 -16 -15 -18 -15 -18 1 0 10 8 18 18 18 10
0 18 -1 18 -2z"/>
<path d="M2861 4114 c0 -11 3 -14 6 -6 3 7 2 16 -1 19 -3 4 -6 -2 -5 -13z"/>
<path d="M2911 4114 c0 -11 3 -14 6 -6 3 7 2 16 -1 19 -3 4 -6 -2 -5 -13z"/>
<path d="M3240 3966 c0 -2 9 -6 20 -9 11 -3 18 -1 14 4 -5 9 -34 13 -34 5z"/>
<path d="M3348 3883 c7 -3 16 -2 19 1 4 3 -2 6 -13 5 -11 0 -14 -3 -6 -6z"/>
<path d="M3395 3860 c3 -5 8 -10 11 -10 2 0 4 5 4 10 0 6 -5 10 -11 10 -5 0
-7 -4 -4 -10z"/>
<path d="M3466 3831 c-3 -5 2 -15 12 -22 15 -12 16 -12 5 2 -7 9 -10 19 -6 22
3 4 4 7 0 7 -3 0 -8 -4 -11 -9z"/>
<path d="M3426 3808 c10 -13 20 -25 21 -27 2 -2 3 6 3 18 0 12 -4 19 -10 16
-5 -3 -10 -1 -10 4 0 6 -5 11 -12 11 -6 0 -3 -10 8 -22z"/>
<path d="M3530 3749 c-11 -20 -12 -20 -25 -2 -16 20 -20 7 -6 -16 7 -10 13
-12 23 -5 7 6 25 10 40 9 26 -1 26 0 11 17 -21 23 -30 23 -43 -3z m30 1 c0 -5
-4 -10 -10 -10 -5 0 -10 5 -10 10 0 6 5 10 10 10 6 0 10 -4 10 -10z"/>
<path d="M2231 4254 c0 -11 3 -14 6 -6 3 7 2 16 -1 19 -3 4 -6 -2 -5 -13z"/>
<path d="M2248 4243 c-2 -15 2 -39 10 -53 12 -23 12 -20 6 25 -8 60 -10 64
-16 28z"/>
<path d="M2340 4260 c0 -5 5 -10 11 -10 5 0 7 5 4 10 -3 6 -8 10 -11 10 -2 0
-4 -4 -4 -10z"/>
<path d="M2406 4222 c-2 -4 4 -8 14 -8 10 0 16 4 14 8 -3 4 -9 8 -14 8 -5 0
-11 -4 -14 -8z"/>
<path d="M2637 4139 c7 -7 15 -10 18 -7 3 3 -2 9 -12 12 -14 6 -15 5 -6 -5z"/>
<path d="M1928 4113 c7 -3 16 -2 19 1 4 3 -2 6 -13 5 -11 0 -14 -3 -6 -6z"/>
<path d="M1996 4111 c-4 -5 3 -7 14 -4 23 6 26 13 6 13 -8 0 -17 -4 -20 -9z"/>
<path d="M3158 4103 c7 -3 16 -2 19 1 4 3 -2 6 -13 5 -11 0 -14 -3 -6 -6z"/>
<path d="M1938 4093 c7 -3 16 -2 19 1 4 3 -2 6 -13 5 -11 0 -14 -3 -6 -6z"/>
<path d="M1698 4023 c6 -2 18 -2 25 0 6 3 1 5 -13 5 -14 0 -19 -2 -12 -5z"/>
<path d="M1680 3999 c0 -5 9 -9 20 -9 11 0 20 2 20 4 0 2 -9 6 -20 9 -11 3
-20 1 -20 -4z"/>
<path d="M1738 4003 c7 -3 16 -2 19 1 4 3 -2 6 -13 5 -11 0 -14 -3 -6 -6z"/>
<path d="M1685 3970 c3 -5 8 -10 11 -10 2 0 4 5 4 10 0 6 -5 10 -11 10 -5 0
-7 -4 -4 -10z"/>
<path d="M1598 3840 l-143 -140 132 -129 c196 -193 289 -244 466 -258 l77 -6
0 39 c0 21 3 48 6 59 5 19 -2 21 -88 32 -143 17 -211 55 -351 195 l-70 69 87
82 86 82 -22 57 c-13 32 -26 58 -30 58 -4 0 -71 -63 -150 -140z m148 64 c-11
-8 -13 -14 -7 -19 6 -3 11 -1 11 5 0 6 4 9 9 6 5 -4 8 -13 7 -21 -3 -21 -67
-76 -79 -68 -7 4 -8 0 -4 -11 6 -14 3 -17 -8 -12 -9 3 -13 2 -10 -4 7 -12 -26
-51 -37 -44 -5 3 -8 2 -7 -3 1 -4 1 -15 -1 -23 -1 -11 -4 -9 -10 5 -8 18 -9
17 -9 -7 -1 -16 3 -27 7 -25 11 3 178 -163 175 -174 -2 -4 4 -6 12 -3 8 4 15
2 15 -4 0 -5 9 -12 21 -15 12 -3 18 -10 14 -16 -3 -6 0 -9 8 -6 7 3 26 -1 41
-9 l27 -14 -28 -11 c-28 -11 -28 -11 -1 -6 14 3 33 8 42 11 9 3 16 1 16 -6 0
-7 8 -9 21 -5 13 5 19 3 15 -3 -3 -6 18 -9 57 -8 l62 1 3 -34 c6 -55 0 -60
-59 -49 -29 5 -59 17 -66 26 -11 16 -12 15 -13 -2 0 -16 -3 -17 -12 -8 -7 7
-22 12 -34 12 -28 0 -84 20 -84 30 0 5 14 2 31 -7 16 -8 33 -13 36 -10 6 7
-66 38 -81 35 -17 -3 -117 63 -110 73 3 5 -1 9 -9 9 -8 0 -34 21 -58 47 -24
27 -47 47 -50 46 -4 -1 -6 12 -5 29 0 20 -4 32 -14 35 -9 3 -11 1 -5 -4 14
-11 18 -43 6 -43 -5 0 -12 8 -15 18 -3 10 -24 32 -46 49 l-41 31 25 20 c14 10
22 23 18 27 -4 5 -1 5 5 1 7 -4 22 -2 34 5 16 8 23 8 29 -1 5 -8 9 -7 14 5 9
24 7 45 -3 45 -5 0 -7 -10 -4 -22 4 -21 3 -21 -7 -5 -9 15 -8 22 6 38 9 10 23
19 31 19 8 0 12 4 8 9 -3 5 -1 12 5 16 5 3 10 2 10 -3 0 -6 7 -12 15 -16 13
-5 14 -2 4 15 -9 17 -7 24 8 38 10 10 25 15 32 13 9 -3 11 0 6 8 -5 8 -1 18
11 27 15 11 19 11 27 -4 7 -12 5 -20 -7 -29z m-176 -133 c0 -5 -7 -12 -16 -15
-14 -5 -15 -4 -4 9 14 17 20 19 20 6z"/>
<path d="M1670 3870 c0 -5 5 -10 10 -10 6 0 10 5 10 10 0 6 -4 10 -10 10 -5 0
-10 -4 -10 -10z"/>
<path d="M1711 3854 c0 -11 3 -14 6 -6 3 7 2 16 -1 19 -3 4 -6 -2 -5 -13z"/>
<path d="M1615 3810 c3 -5 11 -10 16 -10 6 0 7 5 4 10 -3 6 -11 10 -16 10 -6
0 -7 -4 -4 -10z"/>
<path d="M1655 3810 c3 -5 8 -10 11 -10 2 0 4 5 4 10 0 6 -5 10 -11 10 -5 0
-7 -4 -4 -10z"/>
<path d="M1625 3770 c-3 -5 -1 -10 4 -10 6 0 11 5 11 10 0 6 -2 10 -4 10 -3 0
-8 -4 -11 -10z"/>
<path d="M1505 3709 c-4 -6 -5 -12 -2 -15 2 -3 7 2 10 11 7 17 1 20 -8 4z"/>
<path d="M1617 3659 c7 -7 15 -10 18 -7 3 3 -2 9 -12 12 -14 6 -15 5 -6 -5z"/>
<path d="M1680 3603 c0 -15 19 -37 26 -31 3 4 -1 14 -10 23 -9 9 -16 13 -16 8z"/>
<path d="M1649 3561 c7 -5 17 -15 22 -22 6 -10 8 -7 6 9 -1 15 -8 22 -22 22
-15 0 -17 -2 -6 -9z"/>
<path d="M1747 3486 c-10 -8 -14 -16 -10 -19 5 -3 14 3 21 14 14 22 13 23 -11
5z"/>
<path d="M1896 3411 c-19 -7 -19 -8 2 -13 12 -4 20 -2 17 2 -3 5 1 11 7 13 7
3 9 5 3 6 -5 0 -19 -4 -29 -8z"/>
<path d="M2085 3400 c3 -5 8 -10 11 -10 2 0 4 5 4 10 0 6 -5 10 -11 10 -5 0
-7 -4 -4 -10z"/>
<path d="M2085 3361 c-3 -5 -1 -12 5 -16 5 -3 10 1 10 9 0 18 -6 21 -15 7z"/>
<path d="M2448 3963 c7 -3 16 -2 19 1 4 3 -2 6 -13 5 -11 0 -14 -3 -6 -6z"/>
<path d="M2595 3960 c-4 -7 77 -2 84 6 2 2 -15 3 -38 2 -23 -1 -44 -4 -46 -8z"/>
<path d="M3427 3959 c7 -7 15 -10 18 -7 3 3 -2 9 -12 12 -14 6 -15 5 -6 -5z"/>
<path d="M2434 3829 l-129 -129 85 -85 84 -85 -29 -32 c-17 -17 -36 -39 -44
-47 -11 -12 -40 -17 -117 -19 l-102 -4 -7 -104 c-7 -102 -1 -197 13 -221 6 -9
20 -8 60 3 l53 16 -5 76 c-3 43 -5 85 -6 95 0 9 -5 17 -11 17 -6 0 -8 -9 -4
-20 4 -11 2 -20 -4 -20 -6 0 -11 10 -12 23 0 21 -1 21 -9 2 -5 -13 -3 -24 6
-31 8 -7 14 -30 14 -56 0 -42 -2 -45 -25 -45 -19 0 -29 8 -39 31 -16 36 -20
118 -5 95 7 -9 8 5 4 41 -6 60 7 97 25 70 7 -11 10 -11 10 -2 0 10 21 13 85
11 47 -1 89 2 93 6 4 5 1 5 -5 1 -27 -15 -11 12 32 54 25 24 45 50 45 57 0 7
-11 23 -25 35 -17 15 -23 28 -19 42 4 15 3 17 -4 7 -8 -11 -11 -11 -18 0 -4 7
-3 14 4 17 7 2 12 8 12 14 0 6 -9 3 -19 -6 -23 -20 -35 -7 -26 27 4 14 3 18
-3 9 -14 -20 -43 -3 -37 22 2 11 2 15 -1 9 -3 -7 -10 -13 -15 -13 -5 0 -4 9 3
19 10 16 15 18 27 8 12 -10 14 -9 9 4 -4 11 10 32 43 64 27 26 49 43 49 37 0
-6 -5 -13 -10 -15 -6 -3 -5 -4 2 -3 7 2 13 10 13 18 0 26 81 107 97 97 11 -7
6 -12 -12 -11 -3 0 -14 -11 -24 -25 l-19 -26 31 23 32 24 36 -37 c20 -19 33
-40 29 -46 -3 -6 0 -9 7 -6 18 7 81 -54 74 -72 -4 -8 -1 -11 5 -7 6 3 21 -4
34 -16 l23 -22 -36 -37 c-35 -35 -38 -37 -56 -22 -18 15 -18 15 -8 -5 10 -18
8 -27 -9 -48 -11 -14 -25 -24 -30 -21 -5 4 -6 -1 -3 -9 4 -9 1 -16 -6 -16 -9
0 -7 -8 4 -25 9 -14 12 -25 7 -25 -6 0 -8 -6 -5 -13 6 -17 -31 -51 -46 -42 -6
4 -2 14 12 26 l23 20 -26 -16 c-14 -8 -33 -13 -42 -9 -10 4 -25 -4 -40 -20
-26 -27 -48 -37 -27 -11 7 8 9 15 5 15 -4 0 -13 -7 -20 -16 -10 -15 -13 -15
-27 -1 -9 9 -19 13 -22 10 -4 -4 4 -13 16 -20 13 -7 17 -12 11 -13 -7 0 -13
-5 -13 -12 0 -6 9 -3 20 7 11 10 20 13 20 8 0 -10 -67 -67 -82 -69 -5 -1 -33
-2 -63 -3 -78 -2 -69 -21 10 -21 61 0 68 2 107 38 24 20 55 50 70 67 l27 30
70 -69 71 -68 225 4 c144 2 228 7 235 14 8 8 6 24 -7 60 l-19 49 -191 -4 -192
-3 -53 51 -53 50 87 86 87 86 -128 128 -129 128 -128 -128z m271 -384 c17 -14
24 -25 18 -25 -7 0 -13 -4 -13 -10 0 -5 6 -7 14 -4 8 3 102 6 209 7 l194 2 -2
-34 c-1 -20 -8 -37 -18 -43 -10 -5 -97 -9 -197 -8 -227 1 -211 0 -199 21 12
24 11 39 -2 17 -12 -22 -33 -24 -26 -4 4 11 1 13 -10 9 -12 -5 -15 -2 -10 9 4
12 0 15 -16 11 -18 -4 -19 -3 -7 6 8 6 11 11 5 11 -5 0 -3 5 5 10 9 6 10 10 3
10 -6 0 -15 -4 -18 -10 -3 -5 -11 -10 -17 -10 -7 0 1 14 17 30 16 17 31 30 34
30 3 -1 20 -12 36 -25z m445 -86 c0 -6 -4 -7 -10 -4 -5 3 -10 11 -10 16 0 6 5
7 10 4 6 -3 10 -11 10 -16z m-940 -200 c0 -6 9 -9 20 -6 11 3 20 1 20 -4 0 -4
7 -6 15 -3 8 4 15 2 15 -4 0 -5 -18 -14 -40 -20 -31 -8 -40 -7 -40 3 0 7 -3
20 -6 29 -3 9 -1 16 5 16 6 0 11 -5 11 -11z"/>
<path d="M2681 3421 c-8 -5 -9 -11 -3 -15 5 -3 12 1 16 9 6 17 6 18 -13 6z"/>
<path d="M2218 3133 c7 -3 16 -2 19 1 4 3 -2 6 -13 5 -11 0 -14 -3 -6 -6z"/>
<path d="M2480 3941 c0 -6 4 -13 10 -16 6 -3 7 1 4 9 -7 18 -14 21 -14 7z"/>
<path d="M1605 3929 c-4 -6 -5 -12 -2 -15 2 -3 7 2 10 11 7 17 1 20 -8 4z"/>
<path d="M1631 3917 c-13 -21 -12 -21 5 -5 10 10 16 20 13 22 -3 3 -11 -5 -18
-17z"/>
<path d="M2220 3931 l-25 -7 27 -6 c15 -3 25 -2 23 3 -3 4 3 10 12 12 12 3 13
5 3 5 -8 0 -26 -3 -40 -7z"/>
<path d="M3030 3930 c8 -5 24 -10 34 -10 26 0 18 6 -19 14 -22 5 -26 4 -15 -4z"/>
<path d="M3121 3850 c-18 -28 -54 -73 -80 -101 l-46 -51 35 -37 c67 -70 93
-106 131 -180 56 -109 76 -218 71 -389 l-2 -64 -135 4 -135 3 -6 -30 c-4 -16
-15 -42 -25 -57 l-19 -27 55 -6 c66 -9 361 -2 371 8 12 12 20 257 11 342 -15
148 -65 275 -153 391 l-36 46 25 27 c13 14 38 47 55 73 l31 47 -32 20 c-65 40
-79 38 -116 -19z m101 -7 c9 4 7 6 -4 6 -10 1 -18 6 -18 11 0 7 7 7 21 0 16
-9 18 -14 9 -26 -7 -7 -16 -11 -21 -8 -5 3 -9 -2 -9 -11 0 -10 5 -13 12 -9 18
11 -3 -19 -24 -34 -10 -8 -24 -27 -31 -44 l-13 -31 -18 27 c-14 23 -15 30 -4
44 10 14 8 13 -9 -1 -21 -19 -21 -19 -1 -39 11 -11 17 -26 14 -34 -3 -8 -3
-21 0 -29 5 -13 9 -13 22 -3 13 11 14 11 7 -1 -6 -11 -4 -13 8 -8 11 4 17 1
17 -7 0 -8 4 -16 8 -18 15 -6 82 -128 82 -149 0 -12 4 -17 11 -13 8 4 9 -1 4
-16 -5 -17 -4 -21 6 -15 9 6 11 3 6 -9 -4 -10 -10 -30 -12 -44 -6 -26 -5 -26
10 3 15 29 15 29 10 3 -3 -14 -7 -34 -11 -45 -3 -11 0 -9 9 6 l14 23 6 -32 c4
-18 4 -36 1 -41 -2 -5 0 -18 6 -29 7 -13 7 -20 0 -20 -5 0 -10 -19 -9 -42 1
-32 3 -37 7 -20 4 13 7 -19 8 -70 l0 -93 -12 60 c-11 56 -12 57 -13 20 0 -22
3 -55 8 -73 6 -21 6 -30 0 -26 -6 3 -7 -11 -4 -38 3 -33 3 -37 -4 -18 -8 23
-9 23 -10 4 -1 -20 -7 -22 -113 -26 -62 -3 -141 -1 -176 5 -57 9 -62 12 -56
31 14 46 22 49 130 43 132 -9 160 0 162 51 5 85 5 119 2 157 -2 22 0 59 4 83
6 34 5 41 -6 37 -10 -4 -18 9 -27 47 -8 29 -18 58 -23 65 -5 7 -7 17 -3 23 3
5 2 10 -2 10 -15 0 -45 60 -39 77 4 11 2 14 -9 9 -9 -3 -15 0 -15 9 0 8 -4 15
-9 15 -5 0 -12 7 -15 16 -3 8 -2 12 4 9 5 -3 8 4 7 15 -1 20 -17 29 -17 10 0
-5 -5 -10 -11 -10 -5 0 -7 5 -4 10 3 6 0 10 -8 10 -7 0 -24 11 -37 25 -19 20
-21 27 -10 40 7 8 19 15 26 15 8 0 14 4 14 9 0 5 11 23 25 39 13 16 21 33 17
37 -4 5 -2 5 4 2 6 -4 19 9 30 28 l18 34 22 -20 c13 -12 29 -19 36 -16z m-72
-157 c0 -3 -4 -8 -10 -11 -5 -3 -10 -1 -10 4 0 6 5 11 10 11 6 0 10 -2 10 -4z"/>
<path d="M3151 3829 c-7 -12 -10 -23 -8 -26 3 -3 11 5 17 17 6 12 10 23 8 25
-2 2 -10 -5 -17 -16z"/>
<path d="M3150 3779 c0 -5 5 -7 10 -4 6 3 10 8 10 11 0 2 -4 4 -10 4 -5 0 -10
-5 -10 -11z"/>
<path d="M3186 3557 c3 -10 9 -15 12 -12 3 3 0 11 -7 18 -10 9 -11 8 -5 -6z"/>
<path d="M3178 3521 c9 -16 18 -28 20 -27 5 6 -21 56 -29 56 -5 0 0 -13 9 -29z"/>
<path d="M3220 3534 c1 -13 29 -48 34 -43 2 2 -4 15 -15 28 -10 13 -19 19 -19
15z"/>
<path d="M3240 3385 c0 -14 2 -25 4 -25 2 0 6 11 8 25 3 14 1 25 -3 25 -5 0
-9 -11 -9 -25z"/>
<path d="M3261 3364 c0 -11 3 -14 6 -6 3 7 2 16 -1 19 -3 4 -6 -2 -5 -13z"/>
<path d="M3272 3270 c0 -14 2 -19 5 -12 2 6 2 18 0 25 -3 6 -5 1 -5 -13z"/>
<path d="M3302 3250 c0 -19 2 -27 5 -17 2 9 2 25 0 35 -3 9 -5 1 -5 -18z"/>
<path d="M3272 3110 c0 -14 2 -19 5 -12 2 6 2 18 0 25 -3 6 -5 1 -5 -13z"/>
<path d="M1587 3873 c3 -7 6 -13 8 -13 2 0 5 6 8 13 3 8 -1 14 -8 14 -7 0 -11
-6 -8 -14z"/>
<path d="M2066 3875 c-9 -26 -7 -32 5 -12 6 10 9 21 6 23 -2 3 -7 -2 -11 -11z"/>
<path d="M3059 3873 c-13 -16 -12 -17 4 -4 16 13 21 21 13 21 -2 0 -10 -8 -17
-17z"/>
<path d="M2425 3872 c3 -3 -3 -15 -12 -26 -13 -15 -10 -14 10 3 32 29 31 28
12 28 -8 0 -13 -3 -10 -5z"/>
<path d="M1556 3844 c-5 -14 -4 -15 9 -4 17 14 19 20 6 20 -5 0 -12 -7 -15
-16z"/>
<path d="M3071 3838 c-14 -23 -14 -23 8 -4 22 20 25 26 13 26 -4 0 -13 -10
-21 -22z"/>
<path d="M1809 3841 c8 -5 10 -14 6 -22 -6 -11 -5 -11 5 -2 14 12 6 33 -13 33
-8 0 -7 -3 2 -9z"/>
<path d="M2495 3840 c-3 -6 1 -7 9 -4 18 7 21 14 7 14 -6 0 -13 -4 -16 -10z"/>
<path d="M2530 3830 c0 -5 5 -10 10 -10 6 0 10 5 10 10 0 6 -4 10 -10 10 -5 0
-10 -4 -10 -10z"/>
<path d="M2548 3818 c-10 -10 -15 -18 -11 -18 3 0 -4 -11 -17 -25 -12 -13 -27
-22 -33 -18 -5 3 -7 0 -5 -8 3 -8 -1 -22 -10 -31 -12 -15 -13 -20 -1 -34 18
-21 19 -55 2 -72 -7 -7 -13 -18 -13 -23 0 -6 11 3 24 18 23 26 26 27 42 11 13
-13 15 -20 6 -30 -8 -11 -7 -14 7 -14 12 0 17 5 13 15 -3 8 -1 12 5 8 6 -4 34
16 62 43 28 28 45 50 39 50 -9 0 -8 4 2 11 10 7 11 12 4 15 -6 3 -20 12 -30
20 -10 9 -14 13 -9 10 6 -2 11 4 11 14 0 10 -3 17 -7 14 -4 -2 -13 4 -20 13
-12 15 -12 16 4 10 23 -9 22 0 -3 13 -15 8 -20 8 -18 -1 2 -6 -3 -14 -11 -17
-8 -3 -11 0 -7 7 5 7 1 9 -11 4 -16 -6 -16 -5 -4 10 19 24 10 28 -11 5z m92
-120 c0 -2 -17 -23 -39 -45 l-38 -42 -44 45 -43 44 43 44 43 44 39 -43 c21
-23 39 -44 39 -47z m-25 64 c-3 -3 -11 0 -18 7 -9 10 -8 11 6 5 10 -3 15 -9
12 -12z m-110 -112 c3 -5 1 -10 -4 -10 -6 0 -11 5 -11 10 0 6 2 10 4 10 3 0 8
-4 11 -10z"/>
<path d="M2532 3694 c-7 -8 -8 -14 -3 -14 10 0 25 19 20 25 -2 1 -10 -3 -17
-11z"/>
<path d="M2566 3687 c3 -10 9 -15 12 -12 3 3 0 11 -7 18 -10 9 -11 8 -5 -6z"/>
<path d="M2495 3810 c-3 -6 1 -7 9 -4 18 7 21 14 7 14 -6 0 -13 -4 -16 -10z"/>
<path d="M3036 3812 c-3 -5 1 -9 9 -9 8 0 12 4 9 9 -3 4 -7 8 -9 8 -2 0 -6 -4
-9 -8z"/>
<path d="M1445 3800 c-3 -6 1 -7 9 -4 18 7 21 14 7 14 -6 0 -13 -4 -16 -10z"/>
<path d="M3256 3793 c-6 -14 -5 -15 5 -6 7 7 10 15 7 18 -3 3 -9 -2 -12 -12z"/>
<path d="M2652 3780 c7 -11 16 -20 20 -20 5 0 3 9 -4 20 -7 11 -16 20 -20 20
-5 0 -3 -9 4 -20z"/>
<path d="M1445 3769 c-11 -16 -1 -19 13 -3 7 8 8 14 3 14 -5 0 -13 -5 -16 -11z"/>
<path d="M2426 3764 c-11 -8 -16 -14 -10 -14 13 0 39 18 34 24 -3 2 -14 -2
-24 -10z"/>
<path d="M3366 3768 c3 -5 10 -6 15 -3 13 9 11 12 -6 12 -8 0 -12 -4 -9 -9z"/>
<path d="M1460 3745 c-7 -9 -11 -17 -9 -20 3 -2 10 5 17 15 14 24 10 26 -8 5z"/>
<path d="M1724 3752 c3 -6 0 -12 -6 -15 -7 -2 -1 -4 14 -3 34 1 34 2 7 17 -13
6 -19 7 -15 1z"/>
<path d="M3260 3751 c0 -6 4 -13 10 -16 6 -3 7 1 4 9 -7 18 -14 21 -14 7z"/>
<path d="M2385 3740 c-3 -5 -1 -10 4 -10 6 0 11 5 11 10 0 6 -2 10 -4 10 -3 0
-8 -4 -11 -10z"/>
<path d="M1664 3709 c-3 -6 -2 -15 3 -20 5 -5 9 -1 9 11 0 23 -2 24 -12 9z"/>
<path d="M2251 3684 c0 -11 3 -14 6 -6 3 7 2 16 -1 19 -3 4 -6 -2 -5 -13z"/>
<path d="M2734 3686 c-10 -8 -17 -16 -14 -19 3 -2 14 4 24 14 23 22 18 25 -10
5z"/>
<path d="M2865 3679 c-4 -6 -5 -12 -2 -15 2 -3 7 2 10 11 7 17 1 20 -8 4z"/>
<path d="M2960 3671 c0 -6 4 -13 10 -16 6 -3 7 1 4 9 -7 18 -14 21 -14 7z"/>
<path d="M1457 3659 c7 -7 15 -10 18 -7 3 3 -2 9 -12 12 -14 6 -15 5 -6 -5z"/>
<path d="M2137 3659 c7 -7 15 -10 18 -7 3 3 -2 9 -12 12 -14 6 -15 5 -6 -5z"/>
<path d="M2825 3660 c3 -5 8 -10 11 -10 2 0 4 5 4 10 0 6 -5 10 -11 10 -5 0
-7 -4 -4 -10z"/>
<path d="M2323 3638 c1 -15 6 -23 11 -18 4 4 4 16 -2 26 -9 16 -10 14 -9 -8z"/>
<path d="M2650 3645 c0 -8 2 -15 4 -15 2 0 6 7 10 15 3 8 1 15 -4 15 -6 0 -10
-7 -10 -15z"/>
<path d="M1750 3641 c0 -5 9 -7 20 -4 11 3 20 7 20 9 0 2 -9 4 -20 4 -11 0
-20 -4 -20 -9z"/>
<path d="M3371 3641 c-10 -7 -7 -9 12 -8 14 1 23 5 20 10 -6 9 -15 9 -32 -2z"/>
<path d="M2626 3623 c-6 -14 -5 -15 5 -6 7 7 10 15 7 18 -3 3 -9 -2 -12 -12z"/>
<path d="M2776 3625 c-11 -8 -17 -17 -14 -20 2 -3 13 4 23 15 21 23 18 25 -9
5z"/>
<path d="M1450 3605 c0 -8 4 -15 10 -15 5 0 7 7 4 15 -4 8 -8 15 -10 15 -2 0
-4 -7 -4 -15z"/>
<path d="M2665 3611 c-3 -6 -11 -9 -16 -6 -5 3 -6 -1 -3 -9 5 -14 8 -14 21 0
9 8 13 17 10 20 -3 3 -8 0 -12 -5z"/>
<path d="M2499 3593 c-13 -16 -12 -17 4 -4 9 7 17 15 17 17 0 8 -8 3 -21 -13z"/>
<path d="M2782 3594 c-7 -8 -8 -14 -3 -14 10 0 25 19 20 25 -2 1 -10 -3 -17
-11z"/>
<path d="M3649 3593 c-13 -16 -12 -17 4 -4 16 13 21 21 13 21 -2 0 -10 -8 -17
-17z"/>
<path d="M1514 3588 c-4 -7 -4 -10 1 -6 4 4 15 2 24 -5 14 -11 14 -10 2 6 -16
20 -18 21 -27 5z"/>
<path d="M2060 3591 c0 -6 4 -13 10 -16 6 -3 7 1 4 9 -7 18 -14 21 -14 7z"/>
<path d="M2325 3590 c-3 -6 1 -7 9 -4 18 7 21 14 7 14 -6 0 -13 -4 -16 -10z"/>
<path d="M2575 3580 c-3 -5 -2 -10 4 -10 5 0 13 5 16 10 3 6 2 10 -4 10 -5 0
-13 -4 -16 -10z"/>
<path d="M3586 3577 c3 -10 9 -15 12 -12 3 3 0 11 -7 18 -10 9 -11 8 -5 -6z"/>
<path d="M1792 3566 c2 -1 10 -7 19 -14 13 -10 18 -10 22 0 3 8 -5 14 -20 14
-13 1 -23 1 -21 0z"/>
<path d="M3300 3560 c-9 -6 -10 -10 -3 -10 6 0 15 5 18 10 8 12 4 12 -15 0z"/>
<path d="M2406 3523 c-6 -14 -5 -15 5 -6 7 7 10 15 7 18 -3 3 -9 -2 -12 -12z"/>
<path d="M1545 3510 c3 -5 8 -10 11 -10 2 0 4 5 4 10 0 6 -5 10 -11 10 -5 0
-7 -4 -4 -10z"/>
<path d="M3499 3503 c-10 -11 -10 -14 -1 -9 8 5 12 1 12 -11 0 -15 2 -16 10
-3 6 10 6 16 0 18 -6 2 -8 8 -4 13 9 15 -3 10 -17 -8z"/>
<path d="M2065 3500 c3 -5 8 -10 11 -10 2 0 4 5 4 10 0 6 -5 10 -11 10 -5 0
-7 -4 -4 -10z"/>
<path d="M3558 3503 c7 -3 16 -2 19 1 4 3 -2 6 -13 5 -11 0 -14 -3 -6 -6z"/>
<path d="M1597 3479 c4 -13 8 -18 11 -10 2 7 -1 18 -6 23 -8 8 -9 4 -5 -13z"/>
<path d="M2470 3470 c-6 -11 -8 -20 -6 -20 3 0 10 9 16 20 6 11 8 20 6 20 -3
0 -10 -9 -16 -20z"/>
<path d="M2538 3479 c-6 -4 5 -6 25 -5 21 2 40 5 42 8 8 8 -53 5 -67 -3z"/>
<path d="M3088 3473 c6 -2 18 -2 25 0 6 3 1 5 -13 5 -14 0 -19 -2 -12 -5z"/>
<path d="M1630 3466 c0 -2 7 -7 16 -10 8 -3 12 -2 9 4 -6 10 -25 14 -25 6z"/>
<path d="M2768 3453 c6 -2 18 -2 25 0 6 3 1 5 -13 5 -14 0 -19 -2 -12 -5z"/>
<path d="M1624 3432 c3 -6 19 -12 36 -14 37 -6 27 7 -13 16 -17 4 -26 3 -23
-2z"/>
<path d="M3480 3430 c-9 -6 -10 -10 -3 -10 6 0 15 5 18 10 8 12 4 12 -15 0z"/>
<path d="M2530 3380 c-8 -5 -12 -12 -9 -15 4 -3 12 1 19 10 14 17 11 19 -10 5z"/>
<path d="M2549 3362 c-15 -17 -15 -20 3 -31 11 -7 23 -10 26 -7 3 3 0 6 -5 6
-6 0 -10 11 -8 25 3 30 3 30 -16 7z"/>
<path d="M2410 3349 c0 -5 5 -7 10 -4 6 3 10 8 10 11 0 2 -4 4 -10 4 -5 0 -10
-5 -10 -11z"/>
<path d="M1776 3294 c-3 -26 -6 -62 -6 -80 l0 -34 60 0 c56 0 60 2 60 23 0 12
3 38 6 57 6 35 5 36 -47 55 -30 11 -56 21 -60 23 -3 1 -9 -18 -13 -44z m87 -6
c37 -19 9 -18 -34 1 -34 16 -37 19 -14 14 17 -3 38 -10 48 -15z m-17 -22 c3
-8 11 -14 17 -12 7 1 9 1 5 -1 -5 -3 -5 -15 -2 -27 4 -16 0 -25 -11 -30 -9 -3
-13 -2 -10 4 4 6 -5 7 -23 4 -50 -10 -51 20 -2 44 25 11 25 11 -4 5 -27 -5
-28 -4 -15 10 18 20 38 21 45 3z"/>
<path d="M1830 3229 c0 -5 5 -7 10 -4 6 3 10 8 10 11 0 2 -4 4 -10 4 -5 0 -10
-5 -10 -11z"/>
<path d="M1800 3220 c0 -5 5 -10 10 -10 6 0 10 5 10 10 0 6 -4 10 -10 10 -5 0
-10 -4 -10 -10z"/>
<path d="M2647 3319 c7 -7 15 -10 18 -7 3 3 -2 9 -12 12 -14 6 -15 5 -6 -5z"/>
<path d="M2474 3280 c0 -13 4 -16 10 -10 7 7 7 13 0 20 -6 6 -10 3 -10 -10z"/>
<path d="M3128 3293 c7 -3 16 -2 19 1 4 3 -2 6 -13 5 -11 0 -14 -3 -6 -6z"/>
<path d="M2028 3283 c7 -3 16 -2 19 1 4 3 -2 6 -13 5 -11 0 -14 -3 -6 -6z"/>
<path d="M2131 3274 c0 -11 3 -14 6 -6 3 7 2 16 -1 19 -3 4 -6 -2 -5 -13z"/>
<path d="M3088 3283 c7 -3 16 -2 19 1 4 3 -2 6 -13 5 -11 0 -14 -3 -6 -6z"/>
<path d="M1978 3273 c7 -3 16 -2 19 1 4 3 -2 6 -13 5 -11 0 -14 -3 -6 -6z"/>
<path d="M2068 3273 c6 -2 18 -2 25 0 6 3 1 5 -13 5 -14 0 -19 -2 -12 -5z"/>
<path d="M3128 3273 c7 -3 16 -2 19 1 4 3 -2 6 -13 5 -11 0 -14 -3 -6 -6z"/>
<path d="M2211 3254 c0 -11 3 -14 6 -6 3 7 2 16 -1 19 -3 4 -6 -2 -5 -13z"/>
<path d="M2519 3226 c-155 -144 -289 -195 -511 -196 l-118 0 0 54 0 53 -61 -1
-62 -1 7 -105 c4 -57 9 -106 12 -109 12 -12 332 -13 398 -1 121 21 311 110
355 166 l19 25 28 -26 c33 -30 114 -85 126 -85 11 0 47 79 48 103 0 9 -5 17
-11 17 -17 0 -90 54 -140 103 l-45 45 -45 -42z m113 -69 c-1 -9 2 -18 8 -22 6
-3 7 0 4 9 -3 9 -1 16 5 16 6 0 11 -4 11 -9 0 -5 8 -11 18 -14 14 -3 12 -6
-10 -17 -15 -7 -30 -20 -33 -28 -5 -14 -4 -14 12 0 10 9 31 20 47 24 29 7 29
6 23 -27 l-6 -34 14 30 c12 25 14 27 15 9 0 -12 -8 -32 -18 -44 -16 -20 -21
-21 -43 -10 -13 7 -42 28 -65 47 -49 39 -76 42 -98 8 -10 -15 -22 -22 -31 -19
-11 5 -13 2 -9 -10 6 -16 1 -19 -45 -20 -13 -1 -26 -8 -28 -16 -4 -13 -3 -13
6 0 5 8 13 11 17 7 9 -9 2 -17 -22 -21 -11 -2 -35 -13 -55 -25 -69 -41 -176
-59 -354 -61 l-165 -1 -1 23 -2 23 -4 -22 c-2 -13 -9 -23 -14 -23 -10 0 -13
40 -9 104 1 26 -2 36 -9 32 -15 -10 -14 29 2 42 14 12 67 11 67 -1 0 -5 4 -6
9 -3 5 4 7 -11 4 -33 -4 -26 -1 -41 8 -47 19 -11 233 -23 239 -14 3 5 23 11
45 15 25 4 35 3 27 -2 -8 -6 5 -9 38 -9 27 1 50 2 50 3 0 1 -15 6 -32 11 l-33
9 48 8 c26 4 47 12 47 17 0 5 4 7 8 4 5 -3 19 2 32 11 13 9 36 17 52 19 17 1
35 7 41 14 9 10 9 12 -3 7 -49 -18 -52 -17 -25 2 17 12 35 19 42 16 7 -2 10 2
7 9 -3 8 0 17 7 22 8 4 10 3 5 -4 -4 -7 -2 -12 4 -12 6 0 13 8 17 18 3 9 17
29 32 43 l26 27 40 -33 c22 -18 39 -40 37 -48z"/>
<path d="M2542 3213 c-10 -4 -10 -8 0 -20 11 -14 10 -15 -12 -9 -22 6 -22 5
-7 -4 21 -14 30 -8 32 20 1 11 1 20 1 19 -1 0 -7 -3 -14 -6z"/>
<path d="M2570 3192 c0 -4 9 -13 20 -20 11 -7 20 -9 20 -4 0 4 -9 13 -20 20
-11 7 -20 9 -20 4z"/>
<path d="M2610 3120 c0 -5 5 -10 11 -10 5 0 7 5 4 10 -3 6 -8 10 -11 10 -2 0
-4 -4 -4 -10z"/>
<path d="M1803 3095 c0 -7 6 -11 14 -8 7 3 13 6 13 8 0 2 -6 5 -13 8 -8 3 -14
-1 -14 -8z"/>
<path d="M2445 3090 c-3 -5 -1 -10 4 -10 6 0 11 5 11 10 0 6 -2 10 -4 10 -3 0
-8 -4 -11 -10z"/>
<path d="M2661 3081 c-7 -5 -9 -11 -5 -14 5 -3 15 1 22 9 14 16 5 18 -17 5z"/>
<path d="M2440 3060 c0 -5 5 -10 10 -10 6 0 10 5 10 10 0 6 -4 10 -10 10 -5 0
-10 -4 -10 -10z"/>
<path d="M1808 3026 c-3 -14 -1 -31 3 -38 6 -8 9 1 9 25 0 42 -6 48 -12 13z"/>
<path d="M2278 3033 c7 -3 16 -2 19 1 4 3 -2 6 -13 5 -11 0 -14 -3 -6 -6z"/>
<path d="M2310 3000 c8 -5 20 -10 25 -10 6 0 3 5 -5 10 -8 5 -19 10 -25 10 -5
0 -3 -5 5 -10z"/>
<path d="M2240 2970 c0 -5 5 -10 10 -10 6 0 10 5 10 10 0 6 -4 10 -10 10 -5 0
-10 -4 -10 -10z"/>
<path d="M2748 3263 c7 -3 16 -2 19 1 4 3 -2 6 -13 5 -11 0 -14 -3 -6 -6z"/>
<path d="M2888 3263 l-58 -4 0 -42 c0 -61 -26 -154 -61 -215 -16 -29 -27 -57
-24 -63 4 -5 2 -8 -4 -7 -6 2 -49 -35 -96 -82 l-85 -85 -84 88 -84 89 -34 -18
c-18 -9 -46 -20 -61 -23 -28 -6 -25 -10 117 -157 l146 -151 123 126 c169 173
208 227 243 340 13 42 32 213 23 209 -2 -1 -30 -3 -61 -5z m-41 -45 c-3 -8 -6
-5 -6 6 -1 11 2 17 5 13 3 -3 4 -12 1 -19z m76 -5 c3 -16 1 -34 -5 -41 -6 -7
-8 -28 -5 -47 4 -26 1 -40 -11 -53 -30 -30 -45 -52 -35 -52 6 0 15 10 21 23 6
12 11 16 11 9 1 -7 -10 -33 -24 -58 -14 -25 -25 -51 -25 -58 0 -7 -9 -21 -20
-31 -20 -19 -28 -9 -10 13 6 6 7 10 4 7 -12 -8 -34 24 -28 42 5 17 5 17 -6 0
-9 -14 -9 -22 1 -33 18 -22 20 -61 3 -75 -8 -6 -25 -11 -39 -11 -29 0 -42 -15
-27 -30 6 -6 15 -4 26 7 9 9 16 13 16 8 0 -20 -69 -70 -96 -69 -24 1 -29 -3
-31 -28 -4 -49 -8 -52 -63 -50 -29 1 -47 -2 -40 -6 6 -4 11 -10 11 -14 -3 -23
0 -30 9 -16 5 8 10 11 10 6 0 -5 9 -1 20 9 24 22 27 9 3 -17 -22 -25 -30 -23
-70 17 -19 19 -39 35 -44 35 -9 0 -5 53 6 69 3 6 13 7 22 4 12 -5 12 -2 -3 15
-22 26 -28 28 -20 7 4 -10 -2 -19 -17 -25 -12 -5 -17 -9 -12 -9 6 -1 11 -10
12 -20 1 -14 -16 -2 -62 42 -62 60 -63 62 -42 74 20 11 19 12 -13 8 l-35 -5
32 12 c38 16 52 28 30 28 -9 0 -19 -4 -22 -10 -3 -5 -16 -10 -28 -10 -17 1
-15 4 12 16 19 8 41 12 48 10 17 -7 17 -48 1 -66 -11 -12 -10 -12 4 -1 9 7 18
25 20 39 l3 27 14 -24 c11 -20 11 -22 -1 -17 -7 4 -2 -1 12 -11 14 -10 46 -37
71 -60 25 -24 49 -43 52 -43 3 0 30 24 61 54 43 41 62 53 78 48 18 -4 20 -2
15 18 -4 17 0 28 19 42 13 11 24 26 24 34 0 8 3 14 8 14 4 0 15 14 24 31 10
17 13 27 5 23 -8 -5 -8 -3 1 7 7 8 17 15 22 15 6 1 15 2 20 3 6 0 10 6 10 12
0 8 -6 7 -17 -2 -15 -13 -16 -11 -10 11 4 14 10 49 13 77 4 29 11 50 15 47 5
-3 9 6 9 20 0 43 55 51 63 9z m10 -63 c-3 -12 -8 -19 -11 -16 -5 6 5 36 12 36
2 0 2 -9 -1 -20z m-223 -280 c0 -5 -2 -10 -4 -10 -3 0 -8 5 -11 10 -3 6 -1 10
4 10 6 0 11 -4 11 -10z m40 -34 c0 -3 -4 -8 -10 -11 -5 -3 -10 -1 -10 4 0 6 5
11 10 11 6 0 10 -2 10 -4z m-74 -85 c17 14 19 -2 2 -19 -17 -17 -24 -15 -25
11 0 12 1 16 4 9 4 -10 8 -10 19 -1z m-86 -75 c0 -3 -4 -8 -10 -11 -5 -3 -10
-1 -10 4 0 6 5 11 10 11 6 0 10 -2 10 -4z"/>
<path d="M2879 3180 c-8 -42 -6 -101 3 -98 7 3 13 11 16 19 3 11 2 11 -7 -1
-14 -20 -14 0 -1 36 8 19 8 30 0 38 -5 5 -10 8 -11 6z"/>
<path d="M2851 3154 c0 -11 3 -14 6 -6 3 7 2 16 -1 19 -3 4 -6 -2 -5 -13z"/>
<path d="M2820 2960 c6 -11 13 -20 16 -20 2 0 0 9 -6 20 -6 11 -13 20 -16 20
-2 0 0 -9 6 -20z"/>
<path d="M2622 2790 c-10 -16 -10 -20 1 -20 7 0 13 9 14 20 1 11 1 20 0 20 -1
0 -8 -9 -15 -20z"/>
<path d="M2248 3215 c2 -19 6 -35 8 -35 2 0 4 16 4 35 0 19 -4 35 -8 35 -4 0
-6 -16 -4 -35z"/>
<path d="M3025 3180 c-3 -5 -1 -10 4 -10 6 0 11 5 11 10 0 6 -2 10 -4 10 -3 0
-8 -4 -11 -10z"/>
<path d="M1907 3173 c-10 -9 -9 -23 1 -23 5 0 9 7 9 15 0 17 -1 18 -10 8z"/>
<path d="M2757 3169 c7 -7 15 -10 18 -7 3 3 -2 9 -12 12 -14 6 -15 5 -6 -5z"/>
<path d="M2088 3073 c7 -3 16 -2 19 1 4 3 -2 6 -13 5 -11 0 -14 -3 -6 -6z"/>
<path d="M3018 3073 c7 -3 16 -2 19 1 4 3 -2 6 -13 5 -11 0 -14 -3 -6 -6z"/>
<path d="M2950 3060 c0 -5 7 -7 15 -4 8 4 15 8 15 10 0 2 -7 4 -15 4 -8 0 -15
-4 -15 -10z"/>
<path d="M2526 3022 c-2 -4 10 -8 26 -9 17 -1 28 1 24 4 -10 10 -44 14 -50 5z"/>
<path d="M2598 3023 c7 -3 16 -2 19 1 4 3 -2 6 -13 5 -11 0 -14 -3 -6 -6z"/>
<path d="M2683 2953 c9 -2 23 -2 30 0 6 3 -1 5 -18 5 -16 0 -22 -2 -12 -5z"/>
<path d="M2643 2925 c0 -8 4 -12 9 -9 5 3 6 10 3 15 -9 13 -12 11 -12 -6z"/>
<path d="M2088 2873 c7 -3 16 -2 19 1 4 3 -2 6 -13 5 -11 0 -14 -3 -6 -6z"/>
<path d="M2228 2873 c7 -3 16 -2 19 1 4 3 -2 6 -13 5 -11 0 -14 -3 -6 -6z"/>
<path d="M1788 2863 c7 -3 16 -2 19 1 4 3 -2 6 -13 5 -11 0 -14 -3 -6 -6z"/>
<path d="M3318 2863 c7 -3 16 -2 19 1 4 3 -2 6 -13 5 -11 0 -14 -3 -6 -6z"/>
<path d="M1883 2853 c9 -2 23 -2 30 0 6 3 -1 5 -18 5 -16 0 -22 -2 -12 -5z"/>
<path d="M3228 2853 c7 -3 16 -2 19 1 4 3 -2 6 -13 5 -11 0 -14 -3 -6 -6z"/>
<path d="M2525 2830 c10 -11 20 -20 23 -20 3 0 -3 9 -13 20 -10 11 -20 20 -23
20 -3 0 3 -9 13 -20z"/>
<path d="M2544 2842 c4 -3 14 -7 22 -8 9 -1 13 0 10 4 -4 3 -14 7 -22 8 -9 1
-13 0 -10 -4z"/>
<path d="M2825 2820 c-3 -5 -1 -10 4 -10 6 0 11 5 11 10 0 6 -2 10 -4 10 -3 0
-8 -4 -11 -10z"/>
<path d="M2776 2787 c-15 -16 -16 -19 -3 -14 10 4 17 0 20 -11 2 -9 4 -2 4 16
0 17 0 32 -1 31 -1 0 -10 -10 -20 -22z"/>
<path d="M2256 2785 c-3 -8 -1 -15 4 -15 6 0 10 7 10 15 0 8 -2 15 -4 15 -2 0
-6 -7 -10 -15z"/>
<path d="M2350 2756 c0 -2 8 -10 18 -17 15 -13 16 -12 3 4 -13 16 -21 21 -21
13z"/>
<path d="M2342 2714 c10 -10 20 -15 24 -12 3 4 -5 12 -18 18 -22 12 -22 12 -6
-6z"/>
<path d="M2770 2714 c0 -8 5 -12 10 -9 6 3 10 10 10 16 0 5 -4 9 -10 9 -5 0
-10 -7 -10 -16z"/>
<path d="M2665 2660 c-3 -5 -1 -10 4 -10 6 0 11 5 11 10 0 6 -2 10 -4 10 -3 0
-8 -4 -11 -10z"/>
<path d="M2480 2641 c0 -6 4 -13 10 -16 6 -3 7 1 4 9 -7 18 -14 21 -14 7z"/>
<path d="M2695 2640 c-3 -5 -1 -10 4 -10 6 0 11 5 11 10 0 6 -2 10 -4 10 -3 0
-8 -4 -11 -10z"/>
<path d="M2636 2613 c-6 -14 -5 -15 5 -6 7 7 10 15 7 18 -3 3 -9 -2 -12 -12z"/>
<path d="M2606 2555 c-11 -8 -15 -15 -9 -15 6 0 16 7 23 15 16 19 11 19 -14 0z"/>
<path d="M2505 2550 c3 -5 8 -10 11 -10 2 0 4 5 4 10 0 6 -5 10 -11 10 -5 0
-7 -4 -4 -10z"/>
<path d="M2555 2540 c-3 -5 -2 -10 4 -10 5 0 13 5 16 10 3 6 2 10 -4 10 -5 0
-13 -4 -16 -10z"/>
<path d="M2890 2359 c0 -5 5 -7 10 -4 6 3 10 8 10 11 0 2 -4 4 -10 4 -5 0 -10
-5 -10 -11z"/>
<path d="M4181 2354 c0 -11 3 -14 6 -6 3 7 2 16 -1 19 -3 4 -6 -2 -5 -13z"/>
<path d="M2370 2330 c0 -5 5 -10 11 -10 5 0 7 5 4 10 -3 6 -8 10 -11 10 -2 0
-4 -4 -4 -10z"/>
<path d="M2703 2319 c-17 -6 -23 -16 -23 -38 0 -41 42 -54 72 -23 34 34 -2 79
-49 61z m36 -40 c-12 -23 -24 -26 -15 -4 3 8 1 15 -3 15 -5 0 -12 -6 -14 -12
-4 -8 -6 -7 -6 4 -1 18 17 28 36 21 9 -4 10 -10 2 -24z"/>
<path d="M2912 2310 c0 -14 2 -19 5 -12 2 6 2 18 0 25 -3 6 -5 1 -5 -13z"/>
<path d="M2935 2294 c-3 -20 -4 -39 -1 -42 3 -3 6 5 6 17 0 12 4 20 9 17 4 -3
6 6 3 19 -6 33 -9 32 -17 -11z"/>
<path d="M2030 2306 c-6 -6 -10 -84 -10 -176 0 -207 5 -200 -132 -200 -78 0
-97 -3 -102 -16 -3 -9 -6 -17 -6 -18 0 -5 36 0 48 8 7 4 12 2 12 -4 0 -8 6 -8
21 0 25 14 110 3 88 -11 -10 -6 -10 -9 -2 -9 7 0 18 9 25 20 7 11 18 20 24 20
19 0 44 36 44 64 0 17 4 25 11 20 8 -5 8 -1 0 14 -6 12 -11 74 -11 145 l0 125
35 4 c19 2 41 0 48 -5 8 -6 6 -7 -5 -3 -10 3 -18 1 -18 -4 0 -6 8 -10 17 -10
15 0 14 -2 -3 -19 -10 -10 -22 -17 -25 -15 -6 3 -14 -145 -11 -210 1 -16 -4
-38 -10 -50 -7 -11 -11 -28 -10 -36 1 -8 -7 -26 -18 -40 -18 -24 -22 -25 -152
-25 -73 0 -144 1 -158 2 -14 1 -105 -1 -203 -5 -115 -5 -179 -4 -181 3 -3 6
-9 4 -14 -4 -7 -10 -11 -10 -17 -1 -17 27 16 35 130 33 105 -2 115 -1 125 17
8 14 7 29 -4 53 -12 29 -12 37 0 58 14 23 14 22 9 -16 -3 -31 -3 -35 4 -15 l9
25 1 -25 c1 -14 8 -34 16 -44 8 -11 15 -27 15 -35 -1 -10 -6 -7 -15 9 -8 14
-14 19 -14 10 0 -8 6 -24 14 -34 8 -11 15 -14 15 -7 0 7 5 9 11 5 13 -8 7 14
-27 102 -29 72 -28 70 -6 79 44 19 96 22 127 9 29 -12 34 -11 39 2 3 8 1 12
-4 9 -5 -3 -18 3 -30 15 -11 11 -32 19 -47 19 l-28 -1 30 -8 c27 -7 26 -8 -15
-9 -25 0 -52 4 -60 10 -13 9 -12 10 2 5 10 -3 20 -1 23 4 4 6 21 11 38 11 22
1 25 3 10 6 -12 2 -40 -1 -63 -7 -37 -10 -40 -13 -25 -24 15 -11 14 -13 -9
-26 -18 -9 -26 -22 -26 -41 0 -15 -5 -31 -12 -35 -8 -5 -9 0 -6 14 4 15 2 22
-8 22 -21 0 -17 10 11 32 14 11 25 24 25 30 0 7 -11 1 -25 -12 -27 -25 -41
-25 -22 1 16 21 71 49 96 49 11 0 23 5 26 10 7 11 39 6 103 -17 37 -14 42 -20
43 -47 1 -17 3 -23 6 -13 2 9 9 17 14 17 13 0 11 -12 -6 -37 -8 -12 -12 -29
-8 -39 4 -11 3 -15 -4 -11 -7 5 -9 0 -6 -13 3 -12 2 -20 -3 -19 -16 4 -44 -13
-38 -23 3 -5 11 -4 20 3 19 16 18 4 -2 -16 -12 -12 -14 -19 -6 -27 14 -14 13
-17 45 67 42 112 42 117 9 142 -82 61 -169 69 -247 24 -65 -37 -79 -54 -66
-78 12 -21 61 -147 61 -156 0 -4 -10 -5 -22 -3 -13 3 -71 5 -130 5 l-108 1 0
85 c0 72 3 88 20 105 37 37 26 50 -40 50 l-60 0 0 -168 c0 -187 -6 -209 -54
-200 -26 5 -27 4 -24 -36 l3 -41 47 -3 c39 -3 50 1 72 23 15 15 29 43 32 65
l7 40 350 0 c345 0 351 0 383 22 59 41 68 68 71 223 2 104 6 140 15 140 7 0
14 12 16 28 2 16 8 25 14 21 7 -5 7 -1 0 11 -7 14 -22 19 -61 19 -29 1 -56 -3
-61 -8z m-716 -162 c3 -8 2 -13 -3 -10 -17 11 -31 -50 -28 -129 1 -45 6 -82
12 -85 8 -3 8 -19 2 -50 -8 -37 -11 -41 -18 -25 -7 18 -8 17 -8 -6 -1 -15 -8
-29 -16 -33 -8 -3 -15 -11 -15 -17 0 -8 4 -8 15 1 28 23 29 1 1 -25 -18 -17
-34 -24 -47 -20 -11 4 -19 2 -19 -5 0 -6 -5 -8 -11 -5 -6 4 -8 13 -5 20 3 8
-3 16 -12 18 -12 3 -11 5 6 6 12 0 22 -5 22 -11 0 -7 6 -4 12 7 6 11 17 24 24
28 9 5 11 18 7 37 -3 19 -1 30 6 30 8 0 11 39 10 128 0 80 -4 120 -9 107 -8
-18 -9 -18 -9 -2 -1 26 26 50 49 44 11 -3 20 -1 20 4 0 14 7 11 14 -7z m-77
-216 c-2 -24 -4 -5 -4 42 0 47 2 66 4 43 2 -24 2 -62 0 -85z m847 27 c-4 -8
-8 -15 -10 -15 -2 0 -4 7 -4 15 0 8 4 15 10 15 5 0 7 -7 4 -15z"/>
<path d="M1264 2025 c0 -55 1 -76 3 -47 2 29 2 74 0 100 -2 26 -3 2 -3 -53z"/>
<path d="M1256 1875 c-3 -9 -6 -24 -5 -33 0 -9 5 -4 10 12 9 32 6 48 -5 21z"/>
<path d="M1217 1773 c-4 -3 -7 -11 -7 -17 0 -6 5 -5 12 2 6 6 9 14 7 17 -3 3
-9 2 -12 -2z"/>
<path d="M2250 2312 c-12 -4 -14 -462 -2 -463 4 0 22 -2 40 -5 l32 -4 0 201
c0 186 2 203 20 226 31 40 26 50 -30 49 -27 -1 -54 -2 -60 -4z m74 -36 c-3 -9
-10 -16 -15 -16 -5 0 -9 -87 -9 -195 0 -131 -3 -195 -11 -195 -5 0 -7 5 -3 12
5 8 2 9 -10 5 -15 -6 -16 10 -14 196 l3 202 30 6 c36 6 37 6 29 -15z"/>
<path d="M2804 2295 c-8 -31 10 -55 41 -55 29 0 47 22 43 52 -2 19 -10 24 -40
26 -33 3 -38 0 -44 -23z m51 5 c3 -5 -1 -10 -10 -10 -9 0 -13 5 -10 10 3 6 8
10 10 10 2 0 7 -4 10 -10z m5 -30 c0 -5 -4 -10 -9 -10 -6 0 -13 5 -16 10 -3 6
1 10 9 10 9 0 16 -4 16 -10z"/>
<path d="M4120 2310 l-55 -5 0 -180 c0 -172 1 -181 23 -211 47 -63 51 -63 368
-65 l288 -2 9 34 c5 19 7 69 5 111 -3 69 -6 81 -31 105 l-27 28 -170 3 -170 3
0 -40 0 -41 153 0 154 0 11 -26 c7 -14 9 -42 6 -62 l-6 -37 -236 3 c-131 1
-247 4 -259 7 -12 3 -25 18 -32 36 -13 38 -15 279 -2 279 9 0 37 59 30 63 -2
1 -29 0 -59 -3z m-15 -41 c-5 -15 -4 -19 4 -15 6 4 11 14 11 22 0 8 5 14 11
14 7 0 8 -6 3 -17 -5 -10 -9 -67 -11 -128 -1 -60 -5 -126 -8 -145 -4 -27 -3
-30 4 -15 l10 20 1 -20 c1 -29 31 -64 65 -75 30 -10 30 -10 2 -6 -15 2 -30 -1
-33 -5 -3 -5 6 -9 20 -9 13 0 32 -3 42 -7 12 -4 15 -3 10 5 -5 9 22 12 106 13
62 0 155 3 206 5 71 4 92 2 92 -8 0 -11 2 -11 9 0 6 10 10 10 21 -3 7 -8 18
-15 24 -15 6 0 4 4 -4 10 -12 8 -12 11 1 27 15 19 17 57 5 108 -6 25 -5 27 4
11 7 -10 14 -39 16 -64 3 -25 7 -49 11 -52 3 -3 3 8 0 25 -5 27 -4 28 9 11 10
-14 10 -24 3 -38 -6 -11 -8 -22 -5 -25 3 -3 0 -10 -7 -17 -16 -15 -513 -12
-561 4 -65 21 -72 45 -76 285 -2 128 -2 125 11 125 6 0 8 -9 4 -21z m325 -168
c0 -3 11 -7 25 -7 14 -1 25 2 25 8 0 6 35 8 85 6 50 -2 87 1 89 7 3 6 8 6 13
-1 4 -6 18 -15 31 -19 15 -4 21 -12 18 -21 -3 -9 -1 -12 4 -9 6 4 10 -6 10
-22 0 -22 2 -25 10 -13 7 11 10 5 10 -22 0 -50 -12 -48 -30 4 -13 38 -19 43
-55 50 -22 4 -90 7 -150 7 -113 1 -146 10 -122 36 11 12 37 10 37 -4z m-348
-123 c-8 -8 -9 -4 -5 13 4 13 8 18 11 10 2 -7 -1 -18 -6 -23z"/>
<path d="M4111 1943 c26 -33 40 -45 45 -40 7 7 -37 57 -49 57 -5 0 -3 -8 4
-17z"/>
<path d="M4646 2092 c-3 -6 7 -12 22 -15 25 -5 41 -2 31 7 -12 10 -48 16 -53
8z"/>
<path d="M4224 2285 c-3 -8 -4 -20 -2 -27 3 -7 7 -1 10 15 6 29 1 36 -8 12z"/>
<path d="M2948 2227 c-3 -19 -2 -25 4 -19 6 6 8 18 6 28 -3 14 -5 12 -10 -9z"/>
<path d="M1206 2195 c-3 -8 -1 -15 4 -15 6 0 10 7 10 15 0 8 -2 15 -4 15 -2 0
-6 -7 -10 -15z"/>
<path d="M1760 2206 c0 -2 8 -10 18 -17 15 -13 16 -12 3 4 -13 16 -21 21 -21
13z"/>
<path d="M1822 2201 c-10 -6 -10 -10 3 -21 13 -11 15 -10 9 3 -4 11 2 17 18
20 19 4 19 4 3 5 -11 1 -26 -2 -33 -7z"/>
<path d="M2995 2200 c3 -5 8 -10 11 -10 2 0 4 5 4 10 0 6 -5 10 -11 10 -5 0
-7 -4 -4 -10z"/>
<path d="M3468 2203 c7 -3 16 -2 19 1 4 3 -2 6 -13 5 -11 0 -14 -3 -6 -6z"/>
<path d="M3840 2200 c0 -5 7 -7 15 -4 8 4 15 8 15 10 0 2 -7 4 -15 4 -8 0 -15
-4 -15 -10z"/>
<path d="M4648 2203 c7 -3 16 -2 19 1 4 3 -2 6 -13 5 -11 0 -14 -3 -6 -6z"/>
<path d="M2900 2190 c0 -5 5 -10 10 -10 6 0 10 5 10 10 0 6 -4 10 -10 10 -5 0
-10 -4 -10 -10z"/>
<path d="M2570 2180 c8 -5 20 -10 25 -10 6 0 3 5 -5 10 -8 5 -19 10 -25 10 -5
0 -3 -5 5 -10z"/>
<path d="M3185 2179 c-11 -6 -38 -23 -60 -37 -22 -15 -42 -27 -44 -29 -2 -1
13 -43 34 -93 21 -50 36 -92 34 -93 -2 -1 -65 1 -139 4 -74 3 -130 6 -125 7 6
1 9 46 7 117 l-3 115 -118 0 c-133 0 -171 -10 -220 -56 -32 -29 -35 -39 -39
-96 -4 -77 17 -117 77 -147 38 -20 58 -21 554 -21 496 -1 516 -1 537 -20 25
-22 80 -40 123 -40 38 0 101 34 125 67 66 94 43 202 -54 259 -38 23 -53 26
-95 21 -94 -11 -148 -65 -156 -155 l-5 -57 -110 3 c-78 3 -113 0 -124 -9 -14
-12 -14 -14 3 -20 10 -3 24 -2 31 3 8 7 12 6 12 -3 0 -11 2 -11 8 -2 10 16
183 14 195 -1 5 -6 6 14 3 44 -4 37 -2 50 4 40 5 -8 10 -24 10 -34 0 -11 3
-16 7 -13 3 4 0 25 -7 47 -10 31 -10 42 -1 54 20 24 39 8 38 -30 -1 -19 -4
-29 -8 -22 -4 7 -7 -2 -7 -20 1 -17 4 -29 8 -27 7 4 14 -14 23 -55 0 -3 19
-11 40 -18 52 -18 101 -8 127 25 12 16 20 20 21 12 1 -8 5 2 9 21 5 22 5 36
-1 38 -6 2 -3 14 6 28 8 13 11 24 5 24 -5 0 -10 10 -10 23 0 21 1 21 26 -8 20
-24 24 -36 18 -60 -3 -16 -7 -40 -9 -53 -2 -26 -60 -90 -71 -79 -4 4 1 14 12
22 10 8 14 15 8 15 -6 0 -17 -7 -24 -15 -7 -8 -17 -12 -24 -8 -6 4 -5 0 2 -9
10 -13 10 -18 1 -24 -7 -4 -9 -3 -6 3 4 6 -11 8 -42 5 -51 -5 -96 11 -85 30 5
7 2 9 -7 6 -8 -3 -23 -2 -34 3 -15 6 -16 8 -4 8 9 1 20 8 23 17 3 8 2 12 -3 9
-5 -3 -11 0 -14 7 -2 7 -3 5 -2 -4 2 -12 -7 -19 -29 -24 -44 -10 -675 -11
-679 -1 -1 4 -11 7 -22 7 -185 -10 -295 -10 -295 -1 0 15 35 23 99 20 80 -3
91 7 91 84 0 68 8 74 11 9 2 -23 5 -40 7 -37 8 7 7 115 -1 115 -5 0 -5 -4 -2
-10 3 -5 2 -10 -4 -10 -5 0 -11 12 -13 28 -3 25 -6 27 -58 30 -41 2 -51 6 -40
14 12 8 11 9 -3 4 -10 -3 -25 -6 -33 -6 -9 0 -12 -4 -9 -10 4 -6 -7 -10 -25
-10 -38 0 -90 -47 -90 -82 0 -18 -2 -20 -10 -8 -6 9 -10 10 -10 3 0 -6 6 -18
13 -25 8 -7 12 -18 10 -24 -2 -7 12 -22 32 -34 43 -26 44 -37 5 -37 -24 0 -27
3 -19 14 9 10 7 13 -11 11 -14 -2 -27 5 -34 17 -6 11 -15 23 -21 27 -6 5 -5 8
3 8 6 0 12 5 12 11 0 5 -3 8 -7 6 -5 -3 -8 5 -8 18 0 13 4 21 9 17 5 -3 7 4 4
15 -3 12 -2 27 3 34 7 11 9 10 9 -3 0 -10 4 -18 9 -18 4 0 6 11 4 24 -5 26 41
71 64 61 8 -2 12 -1 9 3 -2 4 50 9 116 10 l120 4 -7 -24 c-5 -18 -4 -20 5 -8
9 12 10 6 4 -25 -3 -22 -6 -47 -4 -55 1 -8 3 -35 4 -60 3 -77 1 -75 146 -75
110 0 129 -2 125 -15 -4 -8 -3 -11 1 -7 11 11 34 80 29 86 -3 2 -5 -2 -5 -10
-1 -8 -7 -3 -15 11 -19 34 -19 48 1 24 15 -17 15 -17 0 8 -9 15 -16 42 -17 60
-1 31 -1 32 -9 8 -7 -22 -16 -10 -10 15 1 6 3 17 5 25 1 8 10 14 19 14 8 -1
13 2 11 7 -9 14 33 30 98 36 50 4 65 2 76 -11 7 -9 20 -16 27 -16 15 0 17 -10
8 -34 -7 -18 -32 -8 -65 25 -19 19 -19 19 3 19 12 0 19 3 15 6 -9 9 -57 -4
-57 -15 0 -5 8 -12 18 -14 13 -4 11 -5 -5 -6 -13 0 -23 3 -23 7 0 5 -7 9 -15
9 -8 0 -15 -4 -15 -8 0 -4 -13 -12 -29 -17 -22 -8 -30 -18 -33 -43 -3 -20 0
-38 8 -46 7 -8 16 -30 20 -51 5 -31 44 -88 44 -66 0 12 -44 129 -50 134 -11
10 -5 45 8 43 6 -2 12 2 12 8 0 12 124 9 136 -4 4 -4 -4 -42 -17 -85 -23 -76
-24 -78 -52 -74 -26 4 -28 2 -23 -16 6 -17 3 -20 -19 -18 -14 2 -25 -1 -25 -5
0 -5 19 -9 41 -9 36 0 40 2 29 15 -16 19 -6 19 28 -1 20 -12 22 -12 9 -1 -15
13 -16 15 -2 21 8 3 15 16 15 30 0 14 7 31 15 40 8 8 15 22 15 30 0 9 5 16 10
16 13 0 13 -37 0 -45 -6 -4 -8 -16 -4 -27 4 -13 2 -18 -4 -14 -16 9 -33 -27
-21 -45 7 -11 9 -9 9 10 0 16 4 21 15 17 9 -3 15 0 15 9 0 9 4 23 10 33 5 9
21 45 34 79 l24 62 -31 24 c-18 13 -46 31 -64 41 -36 18 -128 21 -158 5z m216
-74 c12 8 10 -13 -4 -50 -11 -28 -13 -29 -27 -15 -17 19 -25 44 -11 36 5 -4
13 8 17 26 5 22 9 27 12 15 2 -9 8 -15 13 -12z m444 -8 c6 -7 19 -19 30 -27
20 -15 20 -14 1 8 -22 26 -7 30 17 5 13 -16 14 -20 1 -37 -8 -11 -14 -15 -14
-8 0 17 -37 33 -95 41 -39 6 -52 4 -48 -5 2 -6 -3 -14 -11 -17 -9 -4 -16 -12
-16 -18 0 -8 4 -8 15 1 8 7 15 9 15 4 0 -4 5 -3 12 4 15 15 43 15 84 0 35 -12
44 -31 44 -90 0 -79 -88 -114 -155 -62 -16 11 -20 28 -21 72 -2 81 -2 82 -19
82 -25 0 -5 29 34 50 39 22 107 20 126 -3z m-725 9 c0 -3 -4 -8 -10 -11 -5 -3
-10 -1 -10 4 0 6 5 11 10 11 6 0 10 -2 10 -4z m-308 -98 l-3 -83 -72 3 c-40 1
-82 5 -94 7 -58 13 -74 90 -25 131 24 21 37 24 112 24 l85 0 -3 -82z"/>
<path d="M3375 2060 c-3 -5 -1 -10 4 -10 6 0 11 5 11 10 0 6 -2 10 -4 10 -3 0
-8 -4 -11 -10z"/>
<path d="M3757 2099 c7 -7 15 -10 18 -7 3 3 -2 9 -12 12 -14 6 -15 5 -6 -5z"/>
<path d="M4498 2183 c12 -2 32 -2 45 0 12 2 2 4 -23 4 -25 0 -35 -2 -22 -4z"/>
<path d="M1008 2172 c-27 -2 -48 -5 -48 -7 0 -18 22 -55 30 -50 6 4 10 -29 10
-92 l0 -98 -260 3 -259 3 -21 26 c-16 20 -20 40 -20 97 l0 72 -40 -4 -40 -4 0
-78 c0 -90 17 -139 57 -166 26 -17 55 -19 346 -24 l317 -5 0 161 c0 121 -3
163 -12 165 -7 2 -34 3 -60 1z m14 -27 c7 17 8 16 4 -5 -2 -14 0 -36 5 -50 8
-22 8 -21 4 8 -3 18 0 32 6 32 6 0 7 5 4 10 -3 6 -2 10 3 10 14 0 21 -74 8
-82 -6 -5 -7 -8 -1 -8 6 0 10 -36 11 -85 0 -84 0 -85 -25 -86 -24 -2 -24 -2
-3 -6 12 -2 20 -9 16 -14 -3 -5 -9 -7 -14 -4 -5 3 -133 5 -286 5 -232 0 -282
3 -310 16 -33 16 -51 45 -39 64 3 5 1 10 -4 10 -6 0 -11 -5 -11 -12 0 -6 -3
-9 -6 -5 -3 3 -6 35 -7 71 -2 56 1 66 15 66 9 0 18 8 20 18 3 14 5 13 10 -5 5
-18 2 -23 -11 -23 -14 0 -18 -10 -20 -50 -1 -27 2 -50 6 -50 5 0 8 20 8 44 0
31 3 42 12 39 7 -3 13 -14 13 -25 0 -11 -5 -16 -10 -13 -7 4 -8 -3 -4 -22 7
-28 53 -87 62 -78 3 3 10 0 17 -5 6 -5 32 -12 56 -15 31 -4 39 -2 29 5 -10 6
59 9 204 8 216 -1 219 -1 227 20 13 35 6 195 -9 200 -6 2 -12 11 -12 20 1 14
2 14 12 -3 11 -19 11 -19 20 0z m-622 -45 c0 -5 -5 -10 -11 -10 -5 0 -7 5 -4
10 3 6 8 10 11 10 2 0 4 -4 4 -10z"/>
<path d="M415 1930 c3 -5 8 -10 11 -10 2 0 4 5 4 10 0 6 -5 10 -11 10 -5 0 -7
-4 -4 -10z"/>
<path d="M465 1889 c4 -5 16 -9 27 -9 26 0 19 9 -11 15 -12 2 -19 0 -16 -6z"/>
<path d="M808 1892 c12 -8 143 -5 151 4 2 2 -34 4 -80 4 -47 0 -78 -4 -71 -8z"/>
<path d="M4022 2155 c0 -16 2 -22 5 -12 2 9 2 23 0 30 -3 6 -5 -1 -5 -18z"/>
<path d="M3175 2140 c-3 -5 -2 -10 4 -10 5 0 13 5 16 10 3 6 2 10 -4 10 -5 0
-13 -4 -16 -10z"/>
<path d="M1740 2130 c0 -5 4 -10 9 -10 6 0 13 5 16 10 3 6 -1 10 -9 10 -9 0
-16 -4 -16 -10z"/>
<path d="M3326 2132 c-4 -7 -5 -12 -2 -12 2 0 11 -3 20 -6 9 -3 16 -1 16 6 0
6 -4 9 -9 6 -5 -4 -11 -1 -13 6 -3 9 -6 9 -12 0z"/>
<path d="M2628 2113 c6 -2 18 -2 25 0 6 3 1 5 -13 5 -14 0 -19 -2 -12 -5z"/>
<path d="M2575 2090 c-3 -6 1 -7 9 -4 18 7 21 14 7 14 -6 0 -13 -4 -16 -10z"/>
<path d="M1761 2076 c-8 -9 -24 -47 -37 -84 -20 -61 -25 -67 -48 -65 -31 2
-36 -22 -6 -30 11 -3 20 -1 20 4 0 5 9 9 20 9 14 0 20 7 22 23 2 41 3 46 11
53 4 4 7 17 7 28 0 15 3 17 9 8 7 -11 10 -10 15 3 9 24 8 27 -6 19 -9 -6 -9
-3 0 9 8 9 12 21 10 28 -2 7 -9 5 -17 -5z"/>
<path d="M4770 2076 c0 -2 7 -9 15 -16 13 -11 14 -10 9 4 -5 14 -24 23 -24 12z"/>
<path d="M1446 2053 c-6 -14 -5 -15 5 -6 7 7 10 15 7 18 -3 3 -9 -2 -12 -12z"/>
<path d="M3306 2053 c-6 -14 -5 -15 5 -6 7 7 10 15 7 18 -3 3 -9 -2 -12 -12z"/>
<path d="M3053 2045 c-3 -9 -3 -18 -1 -21 3 -3 8 4 11 16 6 23 -1 27 -10 5z"/>
<path d="M1653 2026 c7 -14 13 -23 15 -21 7 6 -9 45 -18 45 -4 0 -3 -11 3 -24z"/>
<path d="M3261 2014 c0 -11 3 -14 6 -6 3 7 2 16 -1 19 -3 4 -6 -2 -5 -13z"/>
<path d="M3661 2014 c0 -11 3 -14 6 -6 3 7 2 16 -1 19 -3 4 -6 -2 -5 -13z"/>
<path d="M1631 2004 c0 -11 3 -14 6 -6 3 7 2 16 -1 19 -3 4 -6 -2 -5 -13z"/>
<path d="M1683 1975 c-7 -8 -9 -16 -4 -19 5 -3 12 1 15 10 8 22 4 25 -11 9z"/>
<path d="M3916 1983 c-11 -11 -7 -20 9 -20 8 0 15 4 15 8 0 11 -16 20 -24 12z"/>
<path d="M2125 1969 c-4 -6 -4 -13 -1 -16 3 -4 6 -1 6 6 0 7 5 9 12 5 7 -4 8
-3 4 4 -9 15 -13 15 -21 1z"/>
<path d="M4646 1967 c3 -10 9 -15 12 -12 3 3 0 11 -7 18 -10 9 -11 8 -5 -6z"/>
<path d="M2547 1950 c3 -11 7 -20 9 -20 2 0 4 9 4 20 0 11 -4 20 -9 20 -5 0
-7 -9 -4 -20z"/>
<path d="M4208 1953 c6 -2 18 -2 25 0 6 3 1 5 -13 5 -14 0 -19 -2 -12 -5z"/>
<path d="M2491 1934 c0 -11 3 -14 6 -6 3 7 2 16 -1 19 -3 4 -6 -2 -5 -13z"/>
<path d="M2131 1924 c0 -11 3 -14 6 -6 3 7 2 16 -1 19 -3 4 -6 -2 -5 -13z"/>
<path d="M2845 1930 c3 -5 8 -10 11 -10 2 0 4 5 4 10 0 6 -5 10 -11 10 -5 0
-7 -4 -4 -10z"/>
<path d="M326 1915 c-9 -26 -7 -32 5 -12 6 10 9 21 6 23 -2 3 -7 -2 -11 -11z"/>
<path d="M3181 1904 c0 -11 3 -14 6 -6 3 7 2 16 -1 19 -3 4 -6 -2 -5 -13z"/>
<path d="M3910 1911 c0 -6 4 -13 10 -16 6 -3 7 1 4 9 -7 18 -14 21 -14 7z"/>
<path d="M4020 1911 c0 -6 4 -13 10 -16 6 -3 7 1 4 9 -7 18 -14 21 -14 7z"/>
<path d="M2988 1893 c7 -3 16 -2 19 1 4 3 -2 6 -13 5 -11 0 -14 -3 -6 -6z"/>
<path d="M2678 1883 c6 -2 18 -2 25 0 6 3 1 5 -13 5 -14 0 -19 -2 -12 -5z"/>
<path d="M2380 1835 c0 -14 2 -25 4 -25 2 0 6 11 8 25 3 14 1 25 -3 25 -5 0
-9 -11 -9 -25z"/>
<path d="M3942 1840 c-18 -29 -15 -38 4 -12 9 13 14 25 12 27 -2 2 -9 -5 -16
-15z"/>
<path d="M3745 1840 c19 -8 83 -14 74 -6 -2 2 -24 6 -49 9 -30 4 -38 3 -25 -3z"/>
<path d="M4780 1830 c0 -5 5 -10 11 -10 5 0 7 5 4 10 -3 6 -8 10 -11 10 -2 0
-4 -4 -4 -10z"/>
<path d="M468 1823 c7 -3 16 -2 19 1 4 3 -2 6 -13 5 -11 0 -14 -3 -6 -6z"/>
<path d="M4755 1820 c-3 -5 -1 -10 4 -10 6 0 11 5 11 10 0 6 -2 10 -4 10 -3 0
-8 -4 -11 -10z"/>
<path d="M724 1802 c-6 -4 -13 -17 -17 -30 -4 -17 1 -27 19 -39 49 -32 99 21
58 61 -16 17 -42 20 -60 8z m45 -21 c18 -11 5 -31 -20 -31 -11 0 -17 5 -14 10
4 6 11 8 16 5 5 -4 9 -2 9 4 0 5 -6 12 -12 14 -7 3 -8 6 -3 6 6 0 16 -3 24 -8z"/>
<path d="M4548 1799 c-25 -14 -23 -56 3 -70 33 -17 69 3 69 40 0 38 -34 53
-72 30z m43 -34 c7 19 8 19 8 -2 1 -23 -9 -30 -23 -15 -4 4 -12 7 -17 7 -5 0
-8 5 -6 10 1 6 5 9 10 8 4 -2 8 3 8 10 1 6 4 1 7 -13 4 -23 5 -24 13 -5z"/>
<path d="M646 1774 c-5 -14 -4 -15 9 -4 17 14 19 20 6 20 -5 0 -12 -7 -15 -16z"/>
<path d="M1310 1776 c0 -8 4 -17 9 -20 5 -4 7 3 4 14 -6 23 -13 26 -13 6z"/>
<path d="M3991 1774 c0 -11 3 -14 6 -6 3 7 2 16 -1 19 -3 4 -6 -2 -5 -13z"/>
<path d="M1341 1764 c0 -11 3 -14 6 -6 3 7 2 16 -1 19 -3 4 -6 -2 -5 -13z"/>
<path d="M3837 1739 c7 -7 15 -10 18 -7 3 3 -2 9 -12 12 -14 6 -15 5 -6 -5z"/>
<path d="M4488 1723 c7 -3 16 -2 19 1 4 3 -2 6 -13 5 -11 0 -14 -3 -6 -6z"/>
<path d="M720 1683 c0 -12 3 -14 8 -7 4 7 16 14 27 17 15 4 14 5 -7 6 -21 1
-28 -4 -28 -16z"/>
<path d="M4625 1690 c3 -5 8 -10 11 -10 2 0 4 5 4 10 0 6 -5 10 -11 10 -5 0
-7 -4 -4 -10z"/>
<path d="M1210 1680 l-45 -7 42 -1 c23 -1 45 3 48 8 3 6 5 9 3 8 -2 0 -23 -4
-48 -8z"/>
<path d="M4558 1678 c6 -6 18 -8 28 -6 14 3 12 5 -9 10 -19 3 -25 2 -19 -4z"/>
<path d="M778 1673 c7 -3 16 -2 19 1 4 3 -2 6 -13 5 -11 0 -14 -3 -6 -6z"/>
<path d="M433 1563 c-7 -2 -13 -9 -13 -14 0 -5 9 -4 20 3 22 14 41 2 20 -13
-13 -9 -13 -10 0 -6 8 2 15 10 15 18 0 15 -22 21 -42 12z"/>
<path d="M1005 1559 c-4 -6 -5 -12 -2 -15 2 -3 7 2 10 11 7 17 1 20 -8 4z"/>
<path d="M1369 1557 c5 -5 21 -7 37 -5 27 3 26 4 -8 9 -22 3 -34 1 -29 -4z"/>
<path d="M1540 1550 c0 -11 2 -20 4 -20 2 0 6 9 9 20 3 11 1 20 -4 20 -5 0 -9
-9 -9 -20z"/>
<path d="M1571 1555 c-1 -11 -4 -31 -6 -45 l-6 -25 11 25 c6 13 9 33 7 45 -4
19 -4 19 -6 0z"/>
<path d="M1655 1560 c3 -5 8 -10 11 -10 2 0 4 5 4 10 0 6 -5 10 -11 10 -5 0
-7 -4 -4 -10z"/>
<path d="M1968 1559 c12 -5 32 -5 44 0 18 6 13 8 -22 8 -35 0 -40 -2 -22 -8z"/>
<path d="M2230 1561 c0 -6 4 -12 8 -15 5 -3 9 1 9 9 0 8 -4 15 -9 15 -4 0 -8
-4 -8 -9z"/>
<path d="M2410 1560 c-13 -8 -12 -10 3 -10 9 0 17 5 17 10 0 12 -1 12 -20 0z"/>
<path d="M2515 1560 c3 -5 8 -10 11 -10 2 0 4 5 4 10 0 6 -5 10 -11 10 -5 0
-7 -4 -4 -10z"/>
<path d="M2771 1554 c0 -11 3 -14 6 -6 3 7 2 16 -1 19 -3 4 -6 -2 -5 -13z"/>
<path d="M2848 1563 c7 -3 16 -2 19 1 4 3 -2 6 -13 5 -11 0 -14 -3 -6 -6z"/>
<path d="M2942 1550 c0 -14 2 -19 5 -12 2 6 2 18 0 25 -3 6 -5 1 -5 -13z"/>
<path d="M3005 1560 c3 -5 8 -10 11 -10 2 0 4 5 4 10 0 6 -5 10 -11 10 -5 0
-7 -4 -4 -10z"/>
<path d="M3051 1554 c0 -11 3 -14 6 -6 3 7 2 16 -1 19 -3 4 -6 -2 -5 -13z"/>
<path d="M3150 1559 c0 -5 5 -7 10 -4 6 3 10 8 10 11 0 2 -4 4 -10 4 -5 0 -10
-5 -10 -11z"/>
<path d="M3181 1554 c0 -11 3 -14 6 -6 3 7 2 16 -1 19 -3 4 -6 -2 -5 -13z"/>
<path d="M3495 1560 c3 -5 8 -10 11 -10 2 0 4 5 4 10 0 6 -5 10 -11 10 -5 0
-7 -4 -4 -10z"/>
<path d="M3520 1561 c0 -5 7 -12 16 -15 14 -5 15 -4 4 9 -14 17 -20 19 -20 6z"/>
<path d="M3990 1555 c7 -8 20 -14 29 -14 13 1 13 2 -1 6 -10 2 -18 9 -18 14 0
5 -5 9 -11 9 -8 0 -8 -5 1 -15z"/>
<path d="M4180 1560 c0 -5 5 -10 11 -10 5 0 7 5 4 10 -3 6 -8 10 -11 10 -2 0
-4 -4 -4 -10z"/>
<path d="M4212 1558 c2 -6 11 -13 19 -16 12 -3 12 -2 0 6 -11 8 -11 10 0 15
10 4 8 6 -4 6 -10 1 -17 -4 -15 -11z"/>
<path d="M4348 1563 c7 -3 16 -2 19 1 4 3 -2 6 -13 5 -11 0 -14 -3 -6 -6z"/>
<path d="M4410 1566 c0 -2 7 -7 16 -10 8 -3 12 -2 9 4 -6 10 -25 14 -25 6z"/>
<path d="M4630 1563 c0 -4 5 -15 10 -23 8 -13 10 -13 10 2 0 9 -4 20 -10 23
-5 3 -10 3 -10 -2z"/>
<path d="M4745 1559 c-4 -6 -5 -12 -2 -15 2 -3 7 2 10 11 7 17 1 20 -8 4z"/>
<path d="M1208 1553 c7 -3 16 -2 19 1 4 3 -2 6 -13 5 -11 0 -14 -3 -6 -6z"/>
<path d="M2205 1549 c-4 -6 -5 -12 -2 -15 2 -3 7 2 10 11 7 17 1 20 -8 4z"/>
<path d="M2285 1551 c-3 -5 -1 -12 5 -16 5 -3 10 1 10 9 0 18 -6 21 -15 7z"/>
<path d="M3258 1553 c7 -3 16 -2 19 1 4 3 -2 6 -13 5 -11 0 -14 -3 -6 -6z"/>
<path d="M3680 1556 c0 -2 7 -7 16 -10 8 -3 12 -2 9 4 -6 10 -25 14 -25 6z"/>
<path d="M728 1543 c7 -3 16 -2 19 1 4 3 -2 6 -13 5 -11 0 -14 -3 -6 -6z"/>
<path d="M2408 1533 c7 -3 16 -2 19 1 4 3 -2 6 -13 5 -11 0 -14 -3 -6 -6z"/>
<path d="M4048 1533 c7 -3 16 -2 19 1 4 3 -2 6 -13 5 -11 0 -14 -3 -6 -6z"/>
<path d="M4090 1530 c0 -5 5 -10 10 -10 6 0 10 5 10 10 0 6 -4 10 -10 10 -5 0
-10 -4 -10 -10z"/>
<path d="M4656 1525 c-3 -9 -6 -26 -5 -38 1 -14 4 -9 9 13 9 37 7 52 -4 25z"/>
<path d="M713 1519 c-22 -8 -23 -13 -23 -122 0 -110 1 -114 28 -145 27 -30 33
-32 100 -32 70 0 72 1 72 25 0 23 -3 24 -67 27 l-68 3 -3 120 c-1 66 -6 123
-10 126 -4 4 -17 3 -29 -2z m7 -116 c-11 -17 -11 -17 -6 0 3 10 7 37 8 60 l1
42 4 -42 c2 -24 -1 -51 -7 -60z m8 -104 c9 -13 9 -16 -3 -16 -8 0 -15 9 -15
20 0 11 1 18 3 16 1 -2 8 -11 15 -20z m48 -57 c-7 -7 -46 9 -46 18 0 5 11 4
25 -2 14 -6 23 -13 21 -16z m51 2 c-3 -3 -12 -4 -19 -1 -8 3 -5 6 6 6 11 1 17
-2 13 -5z"/>
<path d="M971 1514 c0 -11 3 -14 6 -6 3 7 2 16 -1 19 -3 4 -6 -2 -5 -13z"/>
<path d="M961 1390 c-69 -190 -67 -177 -32 -172 23 3 31 11 39 40 l11 37 66
-3 c63 -4 65 -4 73 -35 7 -26 14 -33 39 -35 l31 -3 -54 147 c-30 81 -54 149
-54 150 0 1 -16 4 -35 6 l-34 4 -50 -136z m99 73 c-9 -14 -7 -29 9 -67 12 -27
19 -51 16 -55 -6 -5 -77 -2 -83 3 -1 2 9 32 21 68 22 59 23 66 8 77 -14 11
-14 11 2 7 9 -3 17 0 17 7 0 7 5 4 11 -5 6 -12 6 -23 -1 -35z m-30 10 c0 -5
-5 -15 -10 -23 -8 -12 -10 -11 -10 8 0 12 5 22 10 22 6 0 10 -3 10 -7z m79
-113 c-1 -24 -27 53 -28 80 0 17 5 11 15 -20 7 -25 13 -52 13 -60z m-109 40
c-5 -10 -6 -20 -3 -24 3 -3 -1 -6 -11 -6 -13 0 -15 4 -7 19 6 10 8 20 6 23 -3
3 2 5 9 5 11 0 12 -5 6 -17z m-14 -57 c-4 -9 -1 -20 6 -25 10 -6 8 -8 -4 -8
-10 0 -18 -4 -18 -8 0 -5 -6 -9 -14 -9 -8 0 -11 8 -8 19 2 10 9 15 15 11 6 -4
8 0 4 10 -5 13 2 22 22 26 2 1 0 -7 -3 -16z m147 -10 c3 -5 1 -17 -3 -27 -5
-15 -9 -16 -15 -7 -4 8 -2 17 6 22 11 7 11 9 -3 9 -9 0 -20 -4 -23 -10 -8 -12
-52 -13 -59 -1 -4 5 3 7 13 4 11 -3 28 0 38 6 21 12 40 14 46 4z m19 -67 c2
-19 0 -32 -4 -30 -8 5 -12 64 -4 64 2 0 6 -15 8 -34z m-216 -1 c-3 -8 0 -15 6
-15 6 0 9 -3 5 -6 -10 -11 -26 6 -20 21 3 8 7 15 10 15 3 0 3 -7 -1 -15z"/>
<path d="M1772 1510 c0 -14 2 -19 5 -12 2 6 2 18 0 25 -3 6 -5 1 -5 -13z"/>
<path d="M1820 1376 l0 -156 89 0 c97 0 133 16 145 64 8 33 -10 77 -34 83 -25
7 -25 8 0 33 28 28 25 66 -6 95 -23 21 -37 25 -95 25 -37 0 -74 3 -83 6 -14 5
-16 -12 -16 -150z m55 114 c3 -5 1 -10 -5 -10 -6 0 -8 -4 -5 -10 3 -5 0 -10
-8 -10 -10 0 -13 7 -10 20 6 22 18 26 28 10z m137 -50 c2 -19 -2 -35 -9 -37
-7 -3 -13 0 -13 7 0 6 5 8 11 4 7 -4 10 -1 7 6 -6 19 -28 24 -28 7 0 -18 -21
-27 -66 -27 -32 0 -34 2 -34 35 0 35 0 35 44 35 25 0 48 -4 51 -10 9 -15 22
-12 22 5 0 8 -4 15 -9 15 -5 0 -6 5 -2 11 10 16 23 -10 26 -51z m-145 4 c-3
-3 -12 -4 -19 -1 -8 3 -5 6 6 6 11 1 17 -2 13 -5z m41 -68 c-7 -7 -25 -10 -41
-8 -34 5 -21 17 21 18 23 1 28 -1 20 -10z m82 4 c0 -5 -3 -10 -7 -11 -60 -6
-77 2 -28 14 32 8 35 7 35 -3z m-122 -45 c0 -17 -6 -25 -17 -24 -9 0 -11 3 -5
5 7 3 10 14 7 24 -3 11 -1 20 5 20 5 0 10 -11 10 -25z m117 2 c13 -10 16 -21
11 -40 -6 -25 -10 -27 -61 -27 l-55 0 0 40 0 40 43 0 c24 0 51 -6 62 -13z m45
-6 c0 -6 -4 -12 -8 -15 -5 -3 -9 1 -9 9 0 8 4 15 9 15 4 0 8 -4 8 -9z m-3 -53
c-3 -8 -6 -5 -6 6 -1 11 2 17 5 13 3 -3 4 -12 1 -19z m-160 -4 c-3 -3 -12 -4
-19 -1 -8 3 -5 6 6 6 11 1 17 -2 13 -5z m56 -27 c-6 -9 -73 -6 -73 4 0 4 18 6
39 6 21 -1 37 -5 34 -10z m67 3 c0 -5 -12 -10 -27 -9 l-28 1 25 8 c14 4 26 8
28 9 1 1 2 -3 2 -9z"/>
<path d="M2222 1405 c2 -101 6 -124 23 -147 40 -53 159 -58 209 -8 19 18 21
34 24 145 l4 125 -26 0 -26 0 0 -101 c0 -55 -5 -109 -11 -120 -16 -30 -53 -40
-96 -26 l-38 12 -5 119 -5 119 -28 2 -29 1 4 -121z m245 -9 c-1 -41 -5 -72 -9
-69 -12 7 -4 143 8 143 2 0 2 -33 1 -74z m-12 -117 c-6 -19 -9 -20 -16 -6 -11
20 0 52 13 39 6 -6 7 -20 3 -33z m-185 7 c0 -7 10 -21 23 -29 12 -9 17 -16 11
-16 -13 -1 -54 36 -54 49 0 6 5 10 10 10 6 0 10 -6 10 -14z m150 -31 c-14 -17
-45 -21 -35 -5 4 6 11 8 16 5 5 -4 9 -1 9 4 0 6 5 11 11 11 8 0 8 -5 -1 -15z
m-67 -22 c-7 -2 -19 -2 -25 0 -7 3 -2 5 12 5 14 0 19 -2 13 -5z"/>
<path d="M2773 1523 c-22 -4 -23 -8 -22 -121 0 -64 4 -126 9 -137 6 -14 8 -8
6 22 -2 25 1 40 6 37 5 -4 8 -14 5 -24 -2 -9 0 -25 5 -34 9 -16 1 -21 -32 -16
-16 2 -50 39 -50 55 1 6 8 -2 18 -17 9 -16 20 -28 24 -28 10 0 -11 55 -60 165
l-41 90 -46 3 -45 3 4 -148 c2 -81 5 -149 5 -150 1 -2 12 -3 26 -3 l25 0 0
123 c0 67 -5 129 -10 137 -7 11 -10 2 -10 -32 0 -27 -3 -48 -7 -48 -5 0 -7 21
-7 47 1 38 5 49 20 52 17 3 44 -23 44 -43 0 -6 -5 -4 -11 4 -22 31 2 -45 45
-140 l42 -95 42 -3 42 -3 0 155 c0 86 -1 155 -2 155 -2 -1 -13 -4 -25 -6z m4
-145 c-3 -7 -5 -2 -5 12 0 14 2 19 5 13 2 -7 2 -19 0 -25z m-187 -10 c0 -16
-3 -19 -11 -11 -6 6 -8 16 -5 22 11 17 16 13 16 -11z m110 -47 c-1 -13 -29 45
-29 59 0 8 6 0 14 -19 8 -18 15 -36 15 -40z m-102 -37 c-2 -22 -7 -39 -13 -39
-12 0 -19 60 -10 83 10 28 27 -3 23 -44z"/>
<path d="M2583 1290 c0 -25 2 -35 4 -22 2 12 2 32 0 45 -2 12 -4 2 -4 -23z"/>
<path d="M2903 1523 c-23 -4 -23 -7 -23 -154 l0 -149 25 0 25 0 0 155 c0 85
-1 154 -2 154 -2 -1 -13 -4 -25 -6z"/>
<path d="M2976 1522 c-3 -2 0 -12 5 -21 5 -9 29 -74 53 -146 l43 -130 39 -3
39 -2 48 142 c26 79 47 148 47 155 0 7 -9 9 -27 4 -25 -6 -32 -18 -65 -119
-27 -83 -35 -119 -28 -135 l9 -22 0 23 c1 12 5 22 11 22 6 0 6 -9 1 -22 -5
-14 -15 -22 -26 -20 -11 2 -14 -1 -10 -8 6 -9 2 -9 -13 -1 -14 7 -19 17 -15
27 5 12 7 13 14 3 23 -38 14 11 -22 123 -39 120 -43 126 -70 130 -16 3 -31 3
-33 0z m230 -68 c-3 -9 -6 -20 -6 -25 0 -6 -4 -8 -9 -5 -12 8 -2 46 11 46 6 0
7 -7 4 -16z m-153 -33 c3 -14 1 -18 -9 -14 -8 3 -14 11 -14 19 0 21 17 17 23
-5z m123 -58 c-10 -10 -19 5 -10 18 6 11 8 11 12 0 2 -7 1 -15 -2 -18z m-115
-6 c-10 -9 -11 -8 -5 6 3 10 9 15 12 12 3 -3 0 -11 -7 -18z m15 -33 c-4 -9 -9
-15 -11 -12 -3 3 -3 13 1 22 4 9 9 15 11 12 3 -3 3 -13 -1 -22z m100 4 c4 -7
3 -8 -4 -4 -7 4 -12 2 -12 -5 0 -7 -3 -10 -6 -6 -6 5 3 27 11 27 2 0 7 -5 11
-12z m-95 -41 c-10 -9 -11 -8 -5 6 3 10 9 15 12 12 3 -3 0 -11 -7 -18z"/>
<path d="M3560 1373 l0 -153 25 0 c24 0 25 3 25 60 0 60 0 60 29 60 24 0 34
-8 56 -46 20 -35 30 -43 39 -34 8 8 7 15 -7 25 -11 8 -14 16 -8 19 17 11 34
-33 20 -50 -17 -20 1 -37 35 -32 l26 3 -33 50 c-44 66 -50 83 -29 81 10 0 24
14 35 36 16 33 16 40 3 71 -7 19 -20 38 -27 43 -8 5 -53 11 -102 14 l-87 5 0
-152z m43 109 c-5 -11 -7 -11 -15 0 -5 8 -7 -38 -6 -114 2 -69 0 -124 -4 -121
-9 5 -11 237 -3 245 11 11 33 4 28 -10z m147 -12 c0 -5 -2 -10 -4 -10 -3 0 -8
5 -11 10 -3 6 -1 10 4 10 6 0 11 -4 11 -10z m-32 -12 c35 -35 -4 -76 -67 -70
-40 4 -41 5 -41 43 l0 39 48 0 c26 0 53 -5 60 -12z m52 -18 c0 -5 -7 -10 -16
-10 -8 0 -12 5 -9 10 3 6 10 10 16 10 5 0 9 -4 9 -10z m-10 -27 c-1 -16 -30
-46 -37 -39 -5 4 0 13 9 20 10 7 15 16 11 19 -3 4 -1 7 5 7 7 0 12 -3 12 -7z
m-159 -66 c-8 -8 -11 -3 -11 19 1 25 2 27 11 11 8 -14 8 -22 0 -30z m102 16
c-10 -4 -9 -8 2 -20 16 -15 11 -38 -6 -27 -5 3 -7 10 -4 15 4 5 -1 12 -10 15
-14 6 -14 8 2 19 10 8 20 11 23 8 3 -3 -1 -8 -7 -10z m67 -123 c0 -5 -2 -10
-4 -10 -3 0 -8 5 -11 10 -3 6 -1 10 4 10 6 0 11 -4 11 -10z"/>
<path d="M3668 1423 c7 -3 16 -2 19 1 4 3 -2 6 -13 5 -11 0 -14 -3 -6 -6z"/>
<path d="M3883 1511 c-36 -23 -47 -49 -38 -91 7 -32 51 -61 112 -74 17 -4 37
-14 43 -21 17 -20 3 -55 -23 -56 -55 -4 -63 -4 -87 4 -14 4 -31 21 -39 38 -7
16 -15 28 -18 26 -2 -3 1 -14 8 -25 10 -16 10 -26 1 -47 -11 -23 -10 -26 16
-36 70 -27 152 -18 187 21 23 26 23 84 0 110 -20 23 -132 61 -153 52 -13 -4
-12 -7 4 -14 18 -8 18 -8 -1 -5 -11 1 -18 6 -17 11 2 5 -2 12 -8 16 -9 5 -9 9
-1 14 6 4 11 2 11 -3 0 -6 5 -11 10 -11 6 0 10 8 10 19 0 38 54 52 111 27 16
-7 49 16 49 34 0 9 -86 30 -123 30 -12 0 -36 -9 -54 -19z m65 -8 c-21 -2 -38
-9 -38 -14 0 -6 -4 -7 -10 -4 -5 3 -10 0 -10 -7 0 -7 -9 -19 -21 -26 -19 -12
-19 -11 -10 7 18 32 53 51 91 49 l35 -1 -37 -4z m74 -7 c7 4 8 2 4 -5 -9 -13
-26 -5 -25 12 0 9 2 8 6 -1 2 -6 10 -9 15 -6z m-55 -122 c-3 -3 -12 -4 -19 -1
-8 3 -5 6 6 6 11 1 17 -2 13 -5z m76 -58 c-4 -6 -8 -5 -11 4 -8 22 -34 39 -51
32 -14 -5 -14 -4 -1 10 14 15 17 14 42 -9 15 -15 24 -31 21 -37z m-10 -44 c-3
-12 -9 -19 -14 -16 -5 3 -9 0 -9 -5 0 -6 -7 -11 -15 -11 -9 0 -5 9 13 29 31
33 33 33 25 3z m-133 -22 c0 -5 -7 -10 -15 -10 -8 0 -15 5 -15 10 0 6 7 10 15
10 8 0 15 -4 15 -10z m40 -4 c0 -2 -7 -7 -16 -10 -8 -3 -12 -2 -9 4 6 10 25
14 25 6z"/>
<path d="M4155 1521 c-11 -2 -23 -8 -27 -15 -4 -6 -8 -73 -8 -148 0 -125 2
-138 18 -138 40 1 43 11 40 161 -3 138 -4 144 -23 140z m9 -103 c-1 -13 -4
-50 -5 -83 l-3 -60 -5 70 c-3 39 -2 76 3 83 12 17 13 15 10 -10z"/>
<path d="M4726 1520 c-23 -4 -35 -17 -57 -60 -32 -62 -36 -82 -14 -74 8 4 15
1 15 -6 0 -6 -4 -9 -9 -6 -11 7 -23 -22 -15 -35 3 -5 0 -9 -6 -9 -6 0 -10 10
-8 23 1 12 -14 55 -35 95 -36 69 -39 72 -74 72 -33 0 -35 -1 -21 -17 17 -20
88 -146 88 -157 0 -4 -5 -4 -12 0 -7 4 -8 3 -4 -5 4 -6 11 -9 16 -6 5 3 10
-20 12 -52 3 -52 5 -57 31 -64 l27 -7 0 61 c0 56 6 71 50 151 28 49 49 92 48
96 -2 3 -16 3 -32 0z m-177 -23 c8 -10 7 -14 -2 -14 -8 0 -14 6 -14 14 0 7 1
13 2 13 2 0 8 -6 14 -13z m168 -12 c0 -8 -5 -11 -10 -8 -6 4 -8 -1 -4 -11 5
-11 3 -15 -5 -10 -8 5 -9 2 -5 -9 3 -10 2 -17 -3 -17 -15 0 -12 23 6 48 18 26
21 27 21 7z m-137 -29 c0 -3 -4 -8 -10 -11 -5 -3 -10 -1 -10 4 0 6 5 11 10 11
6 0 10 -2 10 -4z m9 -40 c9 -11 9 -16 -1 -22 -7 -4 -10 -4 -6 1 4 4 3 14 -3
22 -6 7 -9 13 -6 13 2 0 10 -6 16 -14z m34 -67 c-7 -24 -8 -22 -17 15 -6 25
-5 28 7 17 8 -6 13 -21 10 -32z"/>
<path d="M465 1497 c-8 -13 -26 -55 -39 -93 -13 -38 -33 -93 -45 -122 -27 -67
-27 -69 8 -64 22 3 31 11 38 35 8 31 10 32 74 35 l65 3 12 -34 c10 -27 19 -36
43 -39 24 -4 29 -2 25 11 -14 45 -85 230 -95 249 -7 12 -9 27 -6 32 4 6 -9 10
-29 10 -26 0 -40 -6 -51 -23z m70 -35 c10 -20 20 -40 22 -44 2 -4 -2 -10 -9
-14 -7 -4 -10 -4 -6 0 7 8 -31 90 -38 83 -8 -8 40 -136 53 -141 7 -3 13 1 13
9 0 8 -4 15 -10 15 -5 0 -7 7 -3 16 4 11 12 2 25 -32 10 -27 16 -55 13 -61 -2
-7 -1 -13 4 -13 5 0 11 -10 14 -22 6 -22 6 -22 -13 2 -11 14 -19 30 -19 35 4
37 -2 41 -53 44 -44 2 -55 -1 -70 -21 -16 -20 -18 -21 -13 -3 5 16 3 16 -6 -2
-7 -13 -19 -23 -28 -22 -10 0 -12 2 -3 6 6 2 12 14 12 25 0 15 5 19 18 15 16
-3 23 7 40 60 15 44 19 70 13 82 -7 13 -5 17 8 18 11 1 25 -13 36 -35z m-68
-25 c-1 -19 -7 -34 -12 -34 -8 0 -8 10 -1 34 14 42 17 42 13 0z m-12 -66 c-3
-6 -11 -11 -17 -11 -6 0 -6 6 2 15 14 17 26 13 15 -4z m109 -50 c3 -5 -17 -11
-44 -13 -58 -4 -69 9 -12 15 20 2 40 4 44 5 4 1 9 -2 12 -7z m-154 -61 c0 -22
-15 -27 -26 -8 -5 7 -3 8 6 3 10 -6 12 -4 7 8 -3 10 -2 17 3 17 6 0 10 -9 10
-20z"/>
<path d="M1230 1370 l0 -150 31 0 31 0 -4 59 c-3 58 -2 60 23 63 24 4 31 -3
63 -58 29 -51 41 -62 66 -66 16 -3 30 -2 30 2 0 4 -18 34 -39 68 -37 57 -39
61 -20 67 28 9 52 60 44 96 -12 52 -47 69 -141 69 l-84 0 0 -150z m46 118
c-22 -12 -23 -106 -1 -114 8 -4 15 -10 15 -16 0 -5 -4 -6 -10 -3 -5 3 -10 1
-10 -4 0 -6 -4 -11 -10 -11 -6 0 -10 34 -10 81 0 51 4 78 10 74 6 -3 10 -1 10
5 0 6 5 8 11 4 8 -5 6 -10 -5 -16z m119 2 c-3 -5 -1 -10 4 -10 6 0 11 -5 11
-10 0 -6 -8 -5 -19 2 -19 12 -19 28 0 28 6 0 7 -4 4 -10z m-10 -33 c13 -10 16
-21 11 -40 -6 -24 -11 -27 -51 -27 -25 0 -48 0 -52 0 -4 0 -7 18 -8 40 l0 40
41 0 c22 0 48 -6 59 -13z m48 -7 c3 -11 1 -18 -4 -14 -5 3 -9 12 -9 20 0 20 7
17 13 -6z m-16 -65 c-24 -23 -30 -18 -10 9 10 13 19 20 21 15 2 -5 -3 -16 -11
-24z m-37 -25 c0 -5 -2 -10 -4 -10 -3 0 -8 5 -11 10 -3 6 -1 10 4 10 6 0 11
-4 11 -10z m30 -70 c0 -5 -5 -10 -11 -10 -5 0 -7 5 -4 10 3 6 8 10 11 10 2 0
4 -4 4 -10z m17 -35 c0 -8 -4 -12 -9 -9 -5 3 -6 10 -3 15 9 13 12 11 12 -6z"/>
<path d="M1587 1478 c-9 -24 -33 -91 -55 -150 l-39 -106 28 -4 c25 -4 29 0 39
36 l11 41 64 -3 c63 -4 65 -5 76 -37 9 -25 19 -34 41 -37 15 -3 28 -2 28 1 0
3 -24 72 -52 153 l-53 148 -37 0 c-34 0 -37 -3 -51 -42z m85 -17 c14 -24 16
-37 9 -44 -8 -8 -11 -4 -11 11 0 12 -4 22 -10 22 -5 0 -7 7 -4 15 4 10 0 13
-15 10 -14 -2 -21 1 -21 11 0 26 32 11 52 -25z m-61 -18 c-9 -16 -10 -14 -11
12 0 21 3 26 11 18 8 -8 8 -16 0 -30z m65 -85 c5 -16 -2 -18 -46 -18 -32 0
-49 -4 -45 -10 3 -5 31 -10 61 -10 40 0 54 4 54 14 0 8 5 18 11 22 8 4 9 -1 4
-15 -4 -15 -2 -27 8 -34 8 -7 17 -28 21 -47 4 -25 3 -31 -4 -20 -5 8 -10 22
-10 30 0 24 -30 36 -95 39 -33 2 -67 7 -75 12 -8 4 -10 9 -3 9 6 0 9 9 6 19
-3 11 3 30 12 43 16 22 16 17 0 -24 -8 -21 8 -24 22 -5 6 6 16 34 23 60 l13
49 19 -49 c10 -26 21 -56 24 -65z m-129 -73 c-15 -16 -19 -13 -11 9 3 9 10 13
15 10 5 -3 3 -11 -4 -19z"/>
<path d="M3300 1401 c0 -114 1 -121 26 -151 26 -30 29 -31 98 -28 65 3 71 5
74 26 3 21 0 22 -55 22 -69 0 -78 5 -86 48 l-6 32 64 0 c62 0 65 1 65 25 0 23
-4 24 -62 27 -55 3 -63 6 -64 23 -3 77 -10 83 -24 23 -8 -33 -8 -33 -9 10 -1
41 0 42 32 41 17 0 26 -3 20 -6 -30 -12 -8 -23 45 -23 57 0 82 11 82 37 0 10
-25 13 -100 13 l-100 0 0 -119z m37 3 c-3 -3 -12 -4 -19 -1 -8 3 -5 6 6 6 11
1 17 -2 13 -5z m78 -25 c34 9 45 6 45 -13 0 -6 -5 -4 -10 4 -5 8 -10 10 -10 4
0 -6 -21 -10 -50 -9 -35 1 -50 -3 -50 -12 0 -7 -4 -13 -8 -13 -7 0 -8 32 -3
47 1 1 13 -2 27 -7 17 -7 38 -7 59 -1z m-71 -99 c11 -23 12 -29 3 -18 -8 10
-16 16 -18 14 -2 -3 -5 7 -5 20 -2 30 -1 29 20 -16z m106 -30 c0 -5 -5 -10
-11 -10 -5 0 -7 5 -4 10 3 6 8 10 11 10 2 0 4 -4 4 -10z m-53 -6 c-3 -3 -12
-4 -19 -1 -8 3 -5 6 6 6 11 1 17 -2 13 -5z"/>
<path d="M4220 1507 c0 -24 24 -37 67 -37 l43 0 -3 -125 -2 -126 25 3 25 3 3
126 3 126 49 -5 c49 -4 50 -4 50 22 l0 26 -130 0 c-100 0 -130 -3 -130 -13z
m184 -7 c-14 -14 -72 -21 -79 -10 -3 4 11 8 31 8 19 0 38 3 41 6 4 3 9 6 12 6
3 0 0 -5 -5 -10z m43 -6 c-3 -3 -12 -4 -19 -1 -8 3 -5 6 6 6 11 1 17 -2 13 -5z
m-87 -34 c-13 -9 -13 -11 0 -20 8 -5 10 -10 4 -10 -7 0 -9 -17 -6 -50 3 -33 1
-50 -7 -50 -7 0 -11 25 -11 70 0 60 2 70 18 70 14 0 15 -2 2 -10z m0 -179 c0
-17 -5 -33 -10 -36 -7 -4 -10 6 -8 29 3 43 18 49 18 7z"/>
<path d="M2701 1503 c-1 -6 -4 -20 -7 -30 -5 -17 -5 -17 6 0 6 10 9 23 6 30
-3 9 -5 9 -5 0z"/>
<path d="M3120 1501 c0 -6 4 -13 10 -16 6 -3 7 1 4 9 -7 18 -14 21 -14 7z"/>
<path d="M621 1474 c0 -11 3 -14 6 -6 3 7 2 16 -1 19 -3 4 -6 -2 -5 -13z"/>
<path d="M1521 1448 c-12 -22 -18 -37 -12 -34 6 4 11 2 11 -4 0 -6 5 -8 11 -4
8 5 8 9 -1 14 -9 6 -8 14 5 34 10 15 16 28 14 31 -3 2 -15 -15 -28 -37z"/>
<path d="M4615 1479 c-4 -6 -5 -12 -2 -15 2 -3 7 2 10 11 7 17 1 20 -8 4z"/>
<path d="M591 1454 c0 -11 3 -14 6 -6 3 7 2 16 -1 19 -3 4 -6 -2 -5 -13z"/>
<path d="M4791 1454 c0 -11 3 -14 6 -6 3 7 2 16 -1 19 -3 4 -6 -2 -5 -13z"/>
<path d="M4735 1429 c-4 -6 -5 -12 -2 -15 2 -3 7 2 10 11 7 17 1 20 -8 4z"/>
<path d="M4050 1416 c0 -2 8 -10 18 -17 15 -13 16 -12 3 4 -13 16 -21 21 -21
13z"/>
<path d="M901 1394 c0 -11 3 -14 6 -6 3 7 2 16 -1 19 -3 4 -6 -2 -5 -13z"/>
<path d="M3801 1394 c0 -11 3 -14 6 -6 3 7 2 16 -1 19 -3 4 -6 -2 -5 -13z"/>
<path d="M3225 1380 c-3 -5 -1 -10 4 -10 6 0 11 5 11 10 0 6 -2 10 -4 10 -3 0
-8 -4 -11 -10z"/>
<path d="M1488 1355 c-3 -14 -1 -25 3 -25 5 0 9 11 9 25 0 14 -2 25 -4 25 -2
0 -6 -11 -8 -25z"/>
<path d="M1461 1354 c0 -11 3 -14 6 -6 3 7 2 16 -1 19 -3 4 -6 -2 -5 -13z"/>
<path d="M891 1334 c0 -11 3 -14 6 -6 3 7 2 16 -1 19 -3 4 -6 -2 -5 -13z"/>
<path d="M3796 1332 c-7 -12 12 -38 21 -28 4 5 2 11 -5 13 -6 3 -10 9 -6 14 3
5 3 9 0 9 -3 0 -7 -4 -10 -8z"/>
<path d="M3920 1310 c8 -5 22 -9 30 -9 10 0 8 3 -5 9 -27 12 -43 12 -25 0z"/>
<path d="M3420 1306 c0 -2 7 -7 16 -10 8 -3 12 -2 9 4 -6 10 -25 14 -25 6z"/>
<path d="M3498 1303 c7 -3 16 -2 19 1 4 3 -2 6 -13 5 -11 0 -14 -3 -6 -6z"/>
<path d="M3786 1285 c24 -39 24 -40 24 -28 0 6 -9 21 -21 34 l-20 24 17 -30z"/>
<path d="M3888 1293 c7 -3 16 -2 19 1 4 3 -2 6 -13 5 -11 0 -14 -3 -6 -6z"/>
<path d="M1791 1254 c0 -11 3 -14 6 -6 3 7 2 16 -1 19 -3 4 -6 -2 -5 -13z"/>
<path d="M1326 1247 c3 -10 9 -15 12 -12 3 3 0 11 -7 18 -10 9 -11 8 -5 -6z"/>
<path d="M2049 1230 c-13 -10 -20 -19 -16 -20 4 0 17 9 29 20 28 26 17 26 -13
0z"/>
<path d="M2492 1225 c0 -16 2 -22 5 -12 2 9 2 23 0 30 -3 6 -5 -1 -5 -18z"/>
<path d="M2520 1230 c0 -11 4 -20 9 -20 5 0 7 9 4 20 -3 11 -7 20 -9 20 -2 0
-4 -9 -4 -20z"/>
<path d="M4091 1234 c0 -11 3 -14 6 -6 3 7 2 16 -1 19 -3 4 -6 -2 -5 -13z"/>
<path d="M685 1230 c-3 -5 -1 -10 4 -10 6 0 11 5 11 10 0 6 -2 10 -4 10 -3 0
-8 -4 -11 -10z"/>
<path d="M3661 1224 c0 -11 3 -14 6 -6 3 7 2 16 -1 19 -3 4 -6 -2 -5 -13z"/>
<path d="M2821 1214 c0 -11 3 -14 6 -6 3 7 2 16 -1 19 -3 4 -6 -2 -5 -13z"/>
<path d="M4186 1214 c-4 -9 -4 -19 -1 -22 2 -3 7 3 11 12 4 9 4 19 1 22 -2 3
-7 -3 -11 -12z"/>
<path d="M461 1203 c-7 -8 -11 -16 -8 -19 2 -2 10 2 17 11 17 20 9 27 -9 8z"/>
<path d="M2060 1205 c-8 -9 -8 -15 -2 -15 12 0 26 19 19 26 -2 2 -10 -2 -17
-11z"/>
<path d="M328 1203 c7 -3 16 -2 19 1 4 3 -2 6 -13 5 -11 0 -14 -3 -6 -6z"/>
<path d="M568 1203 c7 -3 16 -2 19 1 4 3 -2 6 -13 5 -11 0 -14 -3 -6 -6z"/>
<path d="M660 1199 c0 -5 5 -7 10 -4 6 3 10 8 10 11 0 2 -4 4 -10 4 -5 0 -10
-5 -10 -11z"/>
<path d="M1198 1203 c7 -3 16 -2 19 1 4 3 -2 6 -13 5 -11 0 -14 -3 -6 -6z"/>
<path d="M1587 1191 c-4 -17 -3 -21 5 -13 5 5 8 16 6 23 -3 8 -7 3 -11 -10z"/>
<path d="M1688 1203 c6 -2 18 -2 25 0 6 3 1 5 -13 5 -14 0 -19 -2 -12 -5z"/>
<path d="M2938 1203 c7 -3 16 -2 19 1 4 3 -2 6 -13 5 -11 0 -14 -3 -6 -6z"/>
<path d="M3043 1195 c0 -8 4 -15 9 -15 4 0 8 5 8 11 0 5 5 7 10 4 6 -3 10 -1
10 4 0 6 -8 11 -18 11 -10 0 -19 -7 -19 -15z"/>
<path d="M3160 1201 c0 -5 9 -7 20 -4 11 3 20 7 20 9 0 2 -9 4 -20 4 -11 0
-20 -4 -20 -9z"/>
<path d="M3513 1203 c9 -2 23 -2 30 0 6 3 -1 5 -18 5 -16 0 -22 -2 -12 -5z"/>
<path d="M3810 1206 c0 -2 9 -6 20 -9 11 -3 18 -1 14 4 -5 9 -34 13 -34 5z"/>
<path d="M4078 1203 c6 -2 18 -2 25 0 6 3 1 5 -13 5 -14 0 -19 -2 -12 -5z"/>
<path d="M4216 1197 c3 -10 9 -15 12 -12 3 3 0 11 -7 18 -10 9 -11 8 -5 -6z"/>
<path d="M366 1183 c-6 -14 -5 -15 5 -6 7 7 10 15 7 18 -3 3 -9 -2 -12 -12z"/>
<path d="M393 1185 c0 -8 4 -12 9 -9 5 3 6 10 3 15 -9 13 -12 11 -12 -6z"/>
<path d="M695 1190 c3 -5 8 -10 11 -10 2 0 4 5 4 10 0 6 -5 10 -11 10 -5 0 -7
-4 -4 -10z"/>
<path d="M1141 1184 c0 -11 3 -14 6 -6 3 7 2 16 -1 19 -3 4 -6 -2 -5 -13z"/>
<path d="M1423 1193 c9 -2 15 -9 12 -14 -3 -5 1 -6 9 -3 25 9 19 20 -11 21
-16 0 -20 -1 -10 -4z"/>
<path d="M1761 1193 c-1 -18 13 -23 29 -11 12 8 12 9 -2 5 -9 -3 -19 -1 -22 6
-3 9 -5 9 -5 0z"/>
<path d="M2308 1193 c6 -2 9 -10 6 -15 -4 -7 -2 -8 5 -4 13 9 5 26 -12 25 -9
0 -8 -2 1 -6z"/>
<path d="M2430 1190 c-8 -5 -10 -10 -5 -10 6 0 17 5 25 10 8 5 11 10 5 10 -5
0 -17 -5 -25 -10z"/>
<path d="M2696 1187 c3 -10 9 -15 12 -12 3 3 0 11 -7 18 -10 9 -11 8 -5 -6z"/>
<path d="M3330 1190 c-9 -6 -10 -10 -3 -10 6 0 15 5 18 10 8 12 4 12 -15 0z"/>
<path d="M3985 1190 c-16 -7 -17 -9 -3 -9 9 -1 20 4 23 9 7 11 7 11 -20 0z"/>
<path d="M607 1179 c7 -7 15 -10 18 -7 3 3 -2 9 -12 12 -14 6 -15 5 -6 -5z"/>
<path d="M730 1180 c8 -5 20 -10 25 -10 6 0 3 5 -5 10 -8 5 -19 10 -25 10 -5
0 -3 -5 5 -10z"/>
<path d="M1685 1180 c3 -5 8 -10 11 -10 2 0 4 5 4 10 0 6 -5 10 -11 10 -5 0
-7 -4 -4 -10z"/>
<path d="M1980 1186 c0 -2 7 -7 16 -10 8 -3 12 -2 9 4 -6 10 -25 14 -25 6z"/>
<path d="M3180 1179 c0 -5 5 -7 10 -4 6 3 10 8 10 11 0 2 -4 4 -10 4 -5 0 -10
-5 -10 -11z"/>
<path d="M3488 1183 c7 -3 16 -2 19 1 4 3 -2 6 -13 5 -11 0 -14 -3 -6 -6z"/>
<path d="M3790 1179 c0 -5 5 -7 10 -4 6 3 10 8 10 11 0 2 -4 4 -10 4 -5 0 -10
-5 -10 -11z"/>
<path d="M4075 1180 c-3 -5 -1 -10 4 -10 6 0 11 5 11 10 0 6 -2 10 -4 10 -3 0
-8 -4 -11 -10z"/>
<path d="M1148 1093 c7 -3 16 -2 19 1 4 3 -2 6 -13 5 -11 0 -14 -3 -6 -6z"/>
<path d="M4568 1093 c7 -3 16 -2 19 1 4 3 -2 6 -13 5 -11 0 -14 -3 -6 -6z"/>
</g>
</svg>
