<svg xmlns="http://www.w3.org/2000/svg" width="498" height="501" viewBox="0 0 498 501" role="img" aria-label=",'E9) 'D91(  Alarab University">
  <defs>
    <linearGradient id="g" x1="0" y1="0" x2="1" y2="1">
      <stop offset="0" stop-color="#00A99D"/>
      <stop offset="1" stop-color="#003A34"/>
    </linearGradient>
  </defs>
  <rect x="0" y="0" width="498" height="501" rx="48" fill="white"/>
  <circle cx="249" cy="190" r="92" fill="url(#g)" opacity="0.12"/>
  <circle cx="249" cy="190" r="74" fill="url(#g)" opacity="0.18"/>
  <circle cx="249" cy="190" r="56" fill="url(#g)" opacity="0.24"/>
  <path d="M249 122c37 0 68 31 68 68s-31 68-68 68-68-31-68-68 31-68 68-68Z" fill="url(#g)"/>
  <path d="M222 198c9 16 20 24 27 24 7 0 18-8 27-24" fill="none" stroke="white" stroke-width="10" stroke-linecap="round"/>
  <text x="249" y="330" text-anchor="middle" font-family="Arial, 'Cairo', sans-serif" font-size="34" font-weight="700" fill="#0B1F1C">
    ,'E9) 'D91(
  </text>
  <text x="249" y="372" text-anchor="middle" font-family="Arial, 'Inter', sans-serif" font-size="22" font-weight="600" fill="#2B4A46">
    Alarab University
  </text>
  <text x="249" y="430" text-anchor="middle" font-family="Arial, sans-serif" font-size="14" fill="#5C7A76">
    Logo asset missing  using placeholder
  </text>
</svg>
